<svg width="1920" height="300" viewBox="0 0 1920 300" fill="none" xmlns="http://www.w3.org/2000/svg">
<rect x="0.000244141" width="1920" height="300" fill="#D9D9D9"/>
<path d="M1731.45 242.926C1731.45 239.366 1731.91 236.089 1732.85 233.097C1733.79 230.104 1735.16 227.344 1736.96 224.815H1740.85C1740.15 225.753 1739.5 226.903 1738.89 228.267C1738.28 229.631 1737.75 231.127 1737.3 232.756C1736.84 234.375 1736.49 236.056 1736.23 237.798C1735.98 239.531 1735.85 241.241 1735.85 242.926C1735.85 245.18 1736.07 247.462 1736.52 249.773C1736.96 252.083 1737.56 254.228 1738.32 256.207C1739.08 258.187 1739.92 259.801 1740.85 261.051H1736.96C1735.16 258.523 1733.79 255.762 1732.85 252.77C1731.91 249.777 1731.45 246.496 1731.45 242.926ZM1748.87 239.04L1750.23 242.36C1752.79 241.32 1761.55 237.68 1766.47 237.68C1770.59 237.68 1773.27 240.2 1773.27 243.6C1773.27 250.12 1765.67 252.6 1756.99 252.84L1758.31 255.92C1769.07 255.28 1776.51 251.36 1776.51 243.64C1776.51 238.2 1772.39 234.8 1766.71 234.8C1762.03 234.8 1755.43 237.2 1752.59 238.08C1751.35 238.48 1750.03 238.84 1748.87 239.04ZM1791.46 228.622H1792.49V230.085H1791.46V228.622ZM1783.98 239.091L1789.87 226.733H1794.08L1799.97 239.091H1796.21L1791.82 229.517H1792.13L1787.78 239.091H1783.98ZM1818 264.474C1815.41 264.474 1813.16 264.238 1811.25 263.764C1809.36 263.291 1807.73 262.637 1806.37 261.804C1805 260.98 1803.83 260.033 1802.83 258.963L1805.05 257.273C1806.37 258.125 1808.07 258.854 1810.15 259.46C1812.23 260.076 1814.85 260.384 1818 260.384C1820.11 260.384 1822.01 260.232 1823.68 259.929C1825.36 259.635 1826.83 259.252 1828.1 258.778C1829.37 258.305 1830.45 257.803 1831.35 257.273L1833.24 258.963C1832.45 259.957 1831.35 260.871 1829.96 261.705C1828.57 262.538 1826.88 263.205 1824.89 263.707C1822.9 264.219 1820.61 264.474 1818 264.474ZM1843.5 228.622H1844.52V230.085H1843.5V228.622ZM1836.01 239.091L1841.9 226.733H1846.11L1852 239.091H1848.24L1843.85 229.517H1844.16L1839.82 239.091H1836.01ZM1864.55 242.926C1864.55 246.496 1864.08 249.777 1863.14 252.77C1862.21 255.762 1860.84 258.523 1859.04 261.051H1855.15C1855.85 260.114 1856.5 258.963 1857.11 257.599C1857.71 256.236 1858.24 254.744 1858.7 253.125C1859.15 251.496 1859.51 249.811 1859.76 248.068C1860.02 246.326 1860.15 244.612 1860.15 242.926C1860.15 240.682 1859.92 238.404 1859.48 236.094C1859.03 233.783 1858.43 231.638 1857.67 229.659C1856.92 227.68 1856.07 226.065 1855.15 224.815H1859.04C1860.84 227.344 1862.21 230.104 1863.14 233.097C1864.08 236.089 1864.55 239.366 1864.55 242.926ZM1875.04 239.04L1876.4 242.36C1878.96 241.32 1887.72 237.68 1892.64 237.68C1896.76 237.68 1899.44 240.2 1899.44 243.6C1899.44 250.12 1891.84 252.6 1883.16 252.84L1884.48 255.92C1895.24 255.28 1902.68 251.36 1902.68 243.64C1902.68 238.2 1898.56 234.8 1892.88 234.8C1888.2 234.8 1881.6 237.2 1878.76 238.08C1877.52 238.48 1876.2 238.84 1875.04 239.04Z" fill="white"/>
<path d="M1445.45 242.926C1445.45 239.366 1445.91 236.089 1446.85 233.097C1447.79 230.104 1449.16 227.344 1450.96 224.815H1454.85C1454.15 225.753 1453.5 226.903 1452.89 228.267C1452.28 229.631 1451.75 231.127 1451.3 232.756C1450.84 234.375 1450.49 236.056 1450.23 237.798C1449.98 239.531 1449.85 241.241 1449.85 242.926C1449.85 245.18 1450.07 247.462 1450.52 249.773C1450.96 252.083 1451.56 254.228 1452.32 256.207C1453.08 258.187 1453.92 259.801 1454.85 261.051H1450.96C1449.16 258.523 1447.79 255.762 1446.85 252.77C1445.91 249.777 1445.45 246.496 1445.45 242.926ZM1462.87 239.04L1464.23 242.36C1466.79 241.32 1475.55 237.68 1480.47 237.68C1484.59 237.68 1487.27 240.2 1487.27 243.6C1487.27 250.12 1479.67 252.6 1470.99 252.84L1472.31 255.92C1483.07 255.28 1490.51 251.36 1490.51 243.64C1490.51 238.2 1486.39 234.8 1480.71 234.8C1476.03 234.8 1469.43 237.2 1466.59 238.08C1465.35 238.48 1464.03 238.84 1462.87 239.04ZM1505.46 228.622H1506.49V230.085H1505.46V228.622ZM1497.98 239.091L1503.87 226.733H1508.08L1513.97 239.091H1510.21L1505.82 229.517H1506.13L1501.78 239.091H1497.98ZM1532 264.474C1529.41 264.474 1527.16 264.238 1525.25 263.764C1523.36 263.291 1521.73 262.637 1520.37 261.804C1519 260.98 1517.83 260.033 1516.83 258.963L1519.05 257.273C1520.37 258.125 1522.07 258.854 1524.15 259.46C1526.23 260.076 1528.85 260.384 1532 260.384C1534.11 260.384 1536.01 260.232 1537.68 259.929C1539.36 259.635 1540.83 259.252 1542.1 258.778C1543.37 258.305 1544.45 257.803 1545.35 257.273L1547.24 258.963C1546.45 259.957 1545.35 260.871 1543.96 261.705C1542.57 262.538 1540.88 263.205 1538.89 263.707C1536.9 264.219 1534.61 264.474 1532 264.474ZM1557.5 228.622H1558.52V230.085H1557.5V228.622ZM1550.01 239.091L1555.9 226.733H1560.11L1566 239.091H1562.24L1557.85 229.517H1558.16L1553.82 239.091H1550.01ZM1578.55 242.926C1578.55 246.496 1578.08 249.777 1577.14 252.77C1576.21 255.762 1574.84 258.523 1573.04 261.051H1569.15C1569.85 260.114 1570.5 258.963 1571.11 257.599C1571.71 256.236 1572.24 254.744 1572.7 253.125C1573.15 251.496 1573.51 249.811 1573.76 248.068C1574.02 246.326 1574.15 244.612 1574.15 242.926C1574.15 240.682 1573.92 238.404 1573.48 236.094C1573.03 233.783 1572.43 231.638 1571.67 229.659C1570.92 227.68 1570.07 226.065 1569.15 224.815H1573.04C1574.84 227.344 1576.21 230.104 1577.14 233.097C1578.08 236.089 1578.55 239.366 1578.55 242.926ZM1589.04 239.04L1590.4 242.36C1592.96 241.32 1601.72 237.68 1606.64 237.68C1610.76 237.68 1613.44 240.2 1613.44 243.6C1613.44 250.12 1605.84 252.6 1597.16 252.84L1598.48 255.92C1609.24 255.28 1616.68 251.36 1616.68 243.64C1616.68 238.2 1612.56 234.8 1606.88 234.8C1602.2 234.8 1595.6 237.2 1592.76 238.08C1591.52 238.48 1590.2 238.84 1589.04 239.04Z" fill="white"/>
<path d="M1159.45 242.926C1159.45 239.366 1159.92 236.089 1160.85 233.097C1161.79 230.104 1163.16 227.344 1164.96 224.815H1168.85C1168.15 225.753 1167.5 226.903 1166.89 228.267C1166.28 229.631 1165.75 231.127 1165.3 232.756C1164.84 234.375 1164.49 236.056 1164.23 237.798C1163.98 239.531 1163.85 241.241 1163.85 242.926C1163.85 245.18 1164.07 247.462 1164.52 249.773C1164.96 252.083 1165.56 254.228 1166.32 256.207C1167.08 258.187 1167.92 259.801 1168.85 261.051H1164.96C1163.16 258.523 1161.79 255.762 1160.85 252.77C1159.92 249.777 1159.45 246.496 1159.45 242.926ZM1176.87 239.04L1178.23 242.36C1180.79 241.32 1189.55 237.68 1194.47 237.68C1198.59 237.68 1201.27 240.2 1201.27 243.6C1201.27 250.12 1193.67 252.6 1184.99 252.84L1186.31 255.92C1197.07 255.28 1204.51 251.36 1204.51 243.64C1204.51 238.2 1200.39 234.8 1194.71 234.8C1190.03 234.8 1183.43 237.2 1180.59 238.08C1179.35 238.48 1178.03 238.84 1176.87 239.04ZM1219.46 228.622H1220.49V230.085H1219.46V228.622ZM1211.98 239.091L1217.87 226.733H1222.08L1227.97 239.091H1224.21L1219.82 229.517H1220.13L1215.79 239.091H1211.98ZM1246 264.474C1243.41 264.474 1241.16 264.238 1239.25 263.764C1237.36 263.291 1235.73 262.637 1234.37 261.804C1233 260.98 1231.83 260.033 1230.83 258.963L1233.05 257.273C1234.37 258.125 1236.07 258.854 1238.15 259.46C1240.23 260.076 1242.85 260.384 1246 260.384C1248.11 260.384 1250.01 260.232 1251.68 259.929C1253.36 259.635 1254.83 259.252 1256.1 258.778C1257.37 258.305 1258.45 257.803 1259.35 257.273L1261.24 258.963C1260.45 259.957 1259.35 260.871 1257.96 261.705C1256.57 262.538 1254.88 263.205 1252.89 263.707C1250.9 264.219 1248.61 264.474 1246 264.474ZM1271.5 228.622H1272.52V230.085H1271.5V228.622ZM1264.01 239.091L1269.9 226.733H1274.11L1280 239.091H1276.24L1271.85 229.517H1272.16L1267.82 239.091H1264.01ZM1292.55 242.926C1292.55 246.496 1292.08 249.777 1291.14 252.77C1290.21 255.762 1288.84 258.523 1287.04 261.051H1283.15C1283.85 260.114 1284.5 258.963 1285.11 257.599C1285.71 256.236 1286.24 254.744 1286.7 253.125C1287.15 251.496 1287.51 249.811 1287.76 248.068C1288.02 246.326 1288.15 244.612 1288.15 242.926C1288.15 240.682 1287.92 238.404 1287.48 236.094C1287.03 233.783 1286.43 231.638 1285.68 229.659C1284.92 227.68 1284.07 226.065 1283.15 224.815H1287.04C1288.84 227.344 1290.21 230.104 1291.14 233.097C1292.08 236.089 1292.55 239.366 1292.55 242.926ZM1303.04 239.04L1304.4 242.36C1306.96 241.32 1315.72 237.68 1320.64 237.68C1324.76 237.68 1327.44 240.2 1327.44 243.6C1327.44 250.12 1319.84 252.6 1311.16 252.84L1312.48 255.92C1323.24 255.28 1330.68 251.36 1330.68 243.64C1330.68 238.2 1326.56 234.8 1320.88 234.8C1316.2 234.8 1309.6 237.2 1306.76 238.08C1305.52 238.48 1304.2 238.84 1303.04 239.04Z" fill="white"/>
<path d="M873.446 242.926C873.446 239.366 873.915 236.089 874.852 233.097C875.79 230.104 877.158 227.344 878.957 224.815H882.85C882.149 225.753 881.495 226.903 880.889 228.267C880.283 229.631 879.753 231.127 879.298 232.756C878.844 234.375 878.489 236.056 878.233 237.798C877.977 239.531 877.85 241.241 877.85 242.926C877.85 245.18 878.072 247.462 878.517 249.773C878.962 252.083 879.564 254.228 880.321 256.207C881.079 258.187 881.922 259.801 882.85 261.051H878.957C877.158 258.523 875.79 255.762 874.852 252.77C873.915 249.777 873.446 246.496 873.446 242.926ZM890.872 239.04L892.232 242.36C894.792 241.32 903.552 237.68 908.472 237.68C912.592 237.68 915.272 240.2 915.272 243.6C915.272 250.12 907.672 252.6 898.992 252.84L900.312 255.92C911.072 255.28 918.512 251.36 918.512 243.64C918.512 238.2 914.392 234.8 908.712 234.8C904.032 234.8 897.432 237.2 894.592 238.08C893.352 238.48 892.032 238.84 890.872 239.04ZM933.464 228.622H934.487V230.085H933.464V228.622ZM925.978 239.091L931.873 226.733H936.078L941.972 239.091H938.208L933.819 229.517H934.132L929.785 239.091H925.978ZM960.002 264.474C957.407 264.474 955.158 264.238 953.254 263.764C951.36 263.291 949.732 262.637 948.368 261.804C947.004 260.98 945.825 260.033 944.831 258.963L947.047 257.273C948.373 258.125 950.073 258.854 952.146 259.46C954.23 260.076 956.848 260.384 960.002 260.384C962.113 260.384 964.007 260.232 965.683 259.929C967.359 259.635 968.832 259.252 970.101 258.778C971.37 258.305 972.454 257.803 973.354 257.273L975.243 258.963C974.448 259.957 973.354 260.871 971.962 261.705C970.57 262.538 968.879 263.205 966.891 263.707C964.902 264.219 962.606 264.474 960.002 264.474ZM985.495 228.622H986.518V230.085H985.495V228.622ZM978.009 239.091L983.904 226.733H988.109L994.004 239.091H990.239L985.85 229.517H986.163L981.816 239.091H978.009ZM1006.55 242.926C1006.55 246.496 1006.08 249.777 1005.14 252.77C1004.21 255.762 1002.84 258.523 1001.04 261.051H997.146C997.847 260.114 998.501 258.963 999.107 257.599C999.713 256.236 1000.24 254.744 1000.7 253.125C1001.15 251.496 1001.51 249.811 1001.76 248.068C1002.02 246.326 1002.15 244.612 1002.15 242.926C1002.15 240.682 1001.92 238.404 1001.48 236.094C1001.03 233.783 1000.43 231.638 999.675 229.659C998.917 227.68 998.074 226.065 997.146 224.815H1001.04C1002.84 227.344 1004.21 230.104 1005.14 233.097C1006.08 236.089 1006.55 239.366 1006.55 242.926ZM1017.04 239.04L1018.4 242.36C1020.96 241.32 1029.72 237.68 1034.64 237.68C1038.76 237.68 1041.44 240.2 1041.44 243.6C1041.44 250.12 1033.84 252.6 1025.16 252.84L1026.48 255.92C1037.24 255.28 1044.68 251.36 1044.68 243.64C1044.68 238.2 1040.56 234.8 1034.88 234.8C1030.2 234.8 1023.6 237.2 1020.76 238.08C1019.52 238.48 1018.2 238.84 1017.04 239.04Z" fill="white"/>
<path d="M587.446 242.926C587.446 239.366 587.915 236.089 588.852 233.097C589.79 230.104 591.158 227.344 592.957 224.815H596.85C596.149 225.753 595.495 226.903 594.889 228.267C594.283 229.631 593.753 231.127 593.298 232.756C592.844 234.375 592.489 236.056 592.233 237.798C591.977 239.531 591.85 241.241 591.85 242.926C591.85 245.18 592.072 247.462 592.517 249.773C592.962 252.083 593.564 254.228 594.321 256.207C595.079 258.187 595.922 259.801 596.85 261.051H592.957C591.158 258.523 589.79 255.762 588.852 252.77C587.915 249.777 587.446 246.496 587.446 242.926ZM604.872 239.04L606.232 242.36C608.792 241.32 617.552 237.68 622.472 237.68C626.592 237.68 629.272 240.2 629.272 243.6C629.272 250.12 621.672 252.6 612.992 252.84L614.312 255.92C625.072 255.28 632.512 251.36 632.512 243.64C632.512 238.2 628.392 234.8 622.712 234.8C618.032 234.8 611.432 237.2 608.592 238.08C607.352 238.48 606.032 238.84 604.872 239.04ZM647.464 228.622H648.487V230.085H647.464V228.622ZM639.978 239.091L645.873 226.733H650.078L655.972 239.091H652.208L647.819 229.517H648.132L643.785 239.091H639.978ZM674.002 264.474C671.407 264.474 669.158 264.238 667.254 263.764C665.36 263.291 663.732 262.637 662.368 261.804C661.004 260.98 659.825 260.033 658.831 258.963L661.047 257.273C662.373 258.125 664.073 258.854 666.146 259.46C668.23 260.076 670.848 260.384 674.002 260.384C676.113 260.384 678.007 260.232 679.683 259.929C681.359 259.635 682.832 259.252 684.101 258.778C685.37 258.305 686.454 257.803 687.354 257.273L689.243 258.963C688.448 259.957 687.354 260.871 685.962 261.705C684.57 262.538 682.879 263.205 680.891 263.707C678.902 264.219 676.606 264.474 674.002 264.474ZM699.495 228.622H700.518V230.085H699.495V228.622ZM692.009 239.091L697.904 226.733H702.109L708.004 239.091H704.239L699.85 229.517H700.163L695.816 239.091H692.009ZM720.55 242.926C720.55 246.496 720.081 249.777 719.144 252.77C718.206 255.762 716.838 258.523 715.038 261.051H711.146C711.847 260.114 712.501 258.963 713.107 257.599C713.713 256.236 714.243 254.744 714.698 253.125C715.152 251.496 715.507 249.811 715.763 248.068C716.019 246.326 716.146 244.612 716.146 242.926C716.146 240.682 715.924 238.404 715.479 236.094C715.034 233.783 714.432 231.638 713.675 229.659C712.917 227.68 712.074 226.065 711.146 224.815H715.038C716.838 227.344 718.206 230.104 719.144 233.097C720.081 236.089 720.55 239.366 720.55 242.926ZM731.044 239.04L732.404 242.36C734.964 241.32 743.724 237.68 748.644 237.68C752.764 237.68 755.444 240.2 755.444 243.6C755.444 250.12 747.844 252.6 739.164 252.84L740.484 255.92C751.244 255.28 758.684 251.36 758.684 243.64C758.684 238.2 754.564 234.8 748.884 234.8C744.204 234.8 737.604 237.2 734.764 238.08C733.524 238.48 732.204 238.84 731.044 239.04Z" fill="white"/>
<path d="M301.446 242.926C301.446 239.366 301.915 236.089 302.852 233.097C303.79 230.104 305.158 227.344 306.957 224.815H310.85C310.149 225.753 309.495 226.903 308.889 228.267C308.283 229.631 307.753 231.127 307.298 232.756C306.844 234.375 306.489 236.056 306.233 237.798C305.977 239.531 305.85 241.241 305.85 242.926C305.85 245.18 306.072 247.462 306.517 249.773C306.962 252.083 307.564 254.228 308.321 256.207C309.079 258.187 309.922 259.801 310.85 261.051H306.957C305.158 258.523 303.79 255.762 302.852 252.77C301.915 249.777 301.446 246.496 301.446 242.926ZM318.872 239.04L320.232 242.36C322.792 241.32 331.552 237.68 336.472 237.68C340.592 237.68 343.272 240.2 343.272 243.6C343.272 250.12 335.672 252.6 326.992 252.84L328.312 255.92C339.072 255.28 346.512 251.36 346.512 243.64C346.512 238.2 342.392 234.8 336.712 234.8C332.032 234.8 325.432 237.2 322.592 238.08C321.352 238.48 320.032 238.84 318.872 239.04ZM361.464 228.622H362.487V230.085H361.464V228.622ZM353.978 239.091L359.873 226.733H364.078L369.972 239.091H366.208L361.819 229.517H362.132L357.785 239.091H353.978ZM388.002 264.474C385.407 264.474 383.158 264.238 381.254 263.764C379.36 263.291 377.732 262.637 376.368 261.804C375.004 260.98 373.825 260.033 372.831 258.963L375.047 257.273C376.373 258.125 378.073 258.854 380.146 259.46C382.23 260.076 384.848 260.384 388.002 260.384C390.113 260.384 392.007 260.232 393.683 259.929C395.359 259.635 396.832 259.252 398.101 258.778C399.37 258.305 400.454 257.803 401.354 257.273L403.243 258.963C402.448 259.957 401.354 260.871 399.962 261.705C398.57 262.538 396.879 263.205 394.891 263.707C392.902 264.219 390.606 264.474 388.002 264.474ZM413.495 228.622H414.518V230.085H413.495V228.622ZM406.009 239.091L411.904 226.733H416.109L422.004 239.091H418.239L413.85 229.517H414.163L409.816 239.091H406.009ZM434.55 242.926C434.55 246.496 434.081 249.777 433.144 252.77C432.206 255.762 430.838 258.523 429.038 261.051H425.146C425.847 260.114 426.501 258.963 427.107 257.599C427.713 256.236 428.243 254.744 428.698 253.125C429.152 251.496 429.507 249.811 429.763 248.068C430.019 246.326 430.146 244.612 430.146 242.926C430.146 240.682 429.924 238.404 429.479 236.094C429.034 233.783 428.432 231.638 427.675 229.659C426.917 227.68 426.074 226.065 425.146 224.815H429.038C430.838 227.344 432.206 230.104 433.144 233.097C434.081 236.089 434.55 239.366 434.55 242.926ZM445.044 239.04L446.404 242.36C448.964 241.32 457.724 237.68 462.644 237.68C466.764 237.68 469.444 240.2 469.444 243.6C469.444 250.12 461.844 252.6 453.164 252.84L454.484 255.92C465.244 255.28 472.684 251.36 472.684 243.64C472.684 238.2 468.564 234.8 462.884 234.8C458.204 234.8 451.604 237.2 448.764 238.08C447.524 238.48 446.204 238.84 445.044 239.04Z" fill="white"/>
<path d="M15.4464 242.926C15.4464 239.366 15.9151 236.089 16.8526 233.097C17.7901 230.104 19.1585 227.344 20.9577 224.815H24.8498C24.149 225.753 23.4956 226.903 22.8896 228.267C22.2835 229.631 21.7532 231.127 21.2987 232.756C20.8441 234.375 20.489 236.056 20.2333 237.798C19.9776 239.531 19.8498 241.241 19.8498 242.926C19.8498 245.18 20.0723 247.462 20.5174 249.773C20.9625 252.083 21.5638 254.228 22.3214 256.207C23.079 258.187 23.9218 259.801 24.8498 261.051H20.9577C19.1585 258.523 17.7901 255.762 16.8526 252.77C15.9151 249.777 15.4464 246.496 15.4464 242.926ZM32.8727 239.04L34.2327 242.36C36.7927 241.32 45.5527 237.68 50.4727 237.68C54.5927 237.68 57.2727 240.2 57.2727 243.6C57.2727 250.12 49.6727 252.6 40.9927 252.84L42.3127 255.92C53.0727 255.28 60.5127 251.36 60.5127 243.64C60.5127 238.2 56.3927 234.8 50.7127 234.8C46.0327 234.8 39.4327 237.2 36.5927 238.08C35.3527 238.48 34.0327 238.84 32.8727 239.04ZM75.4641 228.622H76.4869V230.085H75.4641V228.622ZM67.9783 239.091L73.8732 226.733H78.0778L83.9727 239.091H80.2085L75.8192 229.517H76.1317L71.7852 239.091H67.9783ZM102.002 264.474C99.4071 264.474 97.158 264.238 95.2546 263.764C93.3607 263.291 91.7319 262.637 90.3683 261.804C89.0046 260.98 87.8256 260.033 86.8313 258.963L89.0472 257.273C90.373 258.125 92.0728 258.854 94.1467 259.46C96.23 260.076 98.8484 260.384 102.002 260.384C104.114 260.384 106.007 260.232 107.684 259.929C109.36 259.635 110.832 259.252 112.101 258.778C113.37 258.305 114.454 257.803 115.354 257.273L117.243 258.963C116.448 259.957 115.354 260.871 113.962 261.705C112.57 262.538 110.88 263.205 108.891 263.707C106.902 264.219 104.606 264.474 102.002 264.474ZM127.495 228.622H128.518V230.085H127.495V228.622ZM120.01 239.091L125.904 226.733H130.109L136.004 239.091H132.24L127.85 229.517H128.163L123.816 239.091H120.01ZM148.55 242.926C148.55 246.496 148.081 249.777 147.144 252.77C146.206 255.762 144.838 258.523 143.039 261.051H139.147C139.847 260.114 140.501 258.963 141.107 257.599C141.713 256.236 142.243 254.744 142.698 253.125C143.152 251.496 143.507 249.811 143.763 248.068C144.019 246.326 144.147 244.612 144.147 242.926C144.147 240.682 143.924 238.404 143.479 236.094C143.034 233.783 142.433 231.638 141.675 229.659C140.917 227.68 140.075 226.065 139.147 224.815H143.039C144.838 227.344 146.206 230.104 147.144 233.097C148.081 236.089 148.55 239.366 148.55 242.926ZM159.045 239.04L160.405 242.36C162.965 241.32 171.725 237.68 176.645 237.68C180.765 237.68 183.445 240.2 183.445 243.6C183.445 250.12 175.845 252.6 167.165 252.84L168.485 255.92C179.245 255.28 186.685 251.36 186.685 243.64C186.685 238.2 182.565 234.8 176.885 234.8C172.205 234.8 165.605 237.2 162.765 238.08C161.525 238.48 160.205 238.84 159.045 239.04Z" fill="white"/>
<path d="M1778.55 151.926C1778.55 148.366 1778.08 145.089 1777.15 142.097C1776.21 139.104 1774.84 136.344 1773.04 133.815H1769.15C1769.85 134.753 1770.5 135.903 1771.11 137.267C1771.72 138.631 1772.25 140.127 1772.7 141.756C1773.16 143.375 1773.51 145.056 1773.77 146.798C1774.02 148.531 1774.15 150.241 1774.15 151.926C1774.15 154.18 1773.93 156.462 1773.48 158.773C1773.04 161.083 1772.44 163.228 1771.68 165.207C1770.92 167.187 1770.08 168.801 1769.15 170.051H1773.04C1774.84 167.523 1776.21 164.762 1777.15 161.77C1778.08 158.777 1778.55 155.496 1778.55 151.926ZM1761.13 148.04L1759.77 151.36C1757.21 150.32 1748.45 146.68 1743.53 146.68C1739.41 146.68 1736.73 149.2 1736.73 152.6C1736.73 159.12 1744.33 161.6 1753.01 161.84L1751.69 164.92C1740.93 164.28 1733.49 160.36 1733.49 152.64C1733.49 147.2 1737.61 143.8 1743.29 143.8C1747.97 143.8 1754.57 146.2 1757.41 147.08C1758.65 147.48 1759.97 147.84 1761.13 148.04ZM1718.54 137.622H1717.51V139.085H1718.54V137.622ZM1726.02 148.091L1720.13 135.733H1715.92L1710.03 148.091H1713.79L1718.18 138.517H1717.87L1722.21 148.091H1726.02ZM1692 173.474C1694.59 173.474 1696.84 173.238 1698.75 172.764C1700.64 172.291 1702.27 171.637 1703.63 170.804C1705 169.98 1706.17 169.033 1707.17 167.963L1704.95 166.273C1703.63 167.125 1701.93 167.854 1699.85 168.46C1697.77 169.076 1695.15 169.384 1692 169.384C1689.89 169.384 1687.99 169.232 1686.32 168.929C1684.64 168.635 1683.17 168.252 1681.9 167.778C1680.63 167.305 1679.55 166.803 1678.65 166.273L1676.76 167.963C1677.55 168.957 1678.65 169.871 1680.04 170.705C1681.43 171.538 1683.12 172.205 1685.11 172.707C1687.1 173.219 1689.39 173.474 1692 173.474ZM1666.5 137.622H1665.48V139.085H1666.5V137.622ZM1673.99 148.091L1668.1 135.733H1663.89L1658 148.091H1661.76L1666.15 138.517H1665.84L1670.18 148.091H1673.99ZM1645.45 151.926C1645.45 155.496 1645.92 158.777 1646.86 161.77C1647.79 164.762 1649.16 167.523 1650.96 170.051H1654.85C1654.15 169.114 1653.5 167.963 1652.89 166.599C1652.29 165.236 1651.76 163.744 1651.3 162.125C1650.85 160.496 1650.49 158.811 1650.24 157.068C1649.98 155.326 1649.85 153.612 1649.85 151.926C1649.85 149.682 1650.08 147.404 1650.52 145.094C1650.97 142.783 1651.57 140.638 1652.32 138.659C1653.08 136.68 1653.93 135.065 1654.85 133.815H1650.96C1649.16 136.344 1647.79 139.104 1646.86 142.097C1645.92 145.089 1645.45 148.366 1645.45 151.926ZM1634.96 148.04L1633.6 151.36C1631.04 150.32 1622.28 146.68 1617.36 146.68C1613.24 146.68 1610.56 149.2 1610.56 152.6C1610.56 159.12 1618.16 161.6 1626.84 161.84L1625.52 164.92C1614.76 164.28 1607.32 160.36 1607.32 152.64C1607.32 147.2 1611.44 143.8 1617.12 143.8C1621.8 143.8 1628.4 146.2 1631.24 147.08C1632.48 147.48 1633.8 147.84 1634.96 148.04Z" fill="white"/>
<path d="M1487.55 151.926C1487.55 148.366 1487.08 145.089 1486.15 142.097C1485.21 139.104 1483.84 136.344 1482.04 133.815H1478.15C1478.85 134.753 1479.5 135.903 1480.11 137.267C1480.72 138.631 1481.25 140.127 1481.7 141.756C1482.16 143.375 1482.51 145.056 1482.77 146.798C1483.02 148.531 1483.15 150.241 1483.15 151.926C1483.15 154.18 1482.93 156.462 1482.48 158.773C1482.04 161.083 1481.44 163.228 1480.68 165.207C1479.92 167.187 1479.08 168.801 1478.15 170.051H1482.04C1483.84 167.523 1485.21 164.762 1486.15 161.77C1487.08 158.777 1487.55 155.496 1487.55 151.926ZM1470.13 148.04L1468.77 151.36C1466.21 150.32 1457.45 146.68 1452.53 146.68C1448.41 146.68 1445.73 149.2 1445.73 152.6C1445.73 159.12 1453.33 161.6 1462.01 161.84L1460.69 164.92C1449.93 164.28 1442.49 160.36 1442.49 152.64C1442.49 147.2 1446.61 143.8 1452.29 143.8C1456.97 143.8 1463.57 146.2 1466.41 147.08C1467.65 147.48 1468.97 147.84 1470.13 148.04ZM1427.54 137.622H1426.51V139.085H1427.54V137.622ZM1435.02 148.091L1429.13 135.733H1424.92L1419.03 148.091H1422.79L1427.18 138.517H1426.87L1431.21 148.091H1435.02ZM1401 173.474C1403.59 173.474 1405.84 173.238 1407.75 172.764C1409.64 172.291 1411.27 171.637 1412.63 170.804C1414 169.98 1415.17 169.033 1416.17 167.963L1413.95 166.273C1412.63 167.125 1410.93 167.854 1408.85 168.46C1406.77 169.076 1404.15 169.384 1401 169.384C1398.89 169.384 1396.99 169.232 1395.32 168.929C1393.64 168.635 1392.17 168.252 1390.9 167.778C1389.63 167.305 1388.55 166.803 1387.65 166.273L1385.76 167.963C1386.55 168.957 1387.65 169.871 1389.04 170.705C1390.43 171.538 1392.12 172.205 1394.11 172.707C1396.1 173.219 1398.39 173.474 1401 173.474ZM1375.5 137.622H1374.48V139.085H1375.5V137.622ZM1382.99 148.091L1377.1 135.733H1372.89L1367 148.091H1370.76L1375.15 138.517H1374.84L1379.18 148.091H1382.99ZM1354.45 151.926C1354.45 155.496 1354.92 158.777 1355.86 161.77C1356.79 164.762 1358.16 167.523 1359.96 170.051H1363.85C1363.15 169.114 1362.5 167.963 1361.89 166.599C1361.29 165.236 1360.76 163.744 1360.3 162.125C1359.85 160.496 1359.49 158.811 1359.24 157.068C1358.98 155.326 1358.85 153.612 1358.85 151.926C1358.85 149.682 1359.08 147.404 1359.52 145.094C1359.97 142.783 1360.57 140.638 1361.32 138.659C1362.08 136.68 1362.93 135.065 1363.85 133.815H1359.96C1358.16 136.344 1356.79 139.104 1355.86 142.097C1354.92 145.089 1354.45 148.366 1354.45 151.926ZM1343.96 148.04L1342.6 151.36C1340.04 150.32 1331.28 146.68 1326.36 146.68C1322.24 146.68 1319.56 149.2 1319.56 152.6C1319.56 159.12 1327.16 161.6 1335.84 161.84L1334.52 164.92C1323.76 164.28 1316.32 160.36 1316.32 152.64C1316.32 147.2 1320.44 143.8 1326.12 143.8C1330.8 143.8 1337.4 146.2 1340.24 147.08C1341.48 147.48 1342.8 147.84 1343.96 148.04Z" fill="white"/>
<path d="M1196.55 151.926C1196.55 148.366 1196.08 145.089 1195.15 142.097C1194.21 139.104 1192.84 136.344 1191.04 133.815H1187.15C1187.85 134.753 1188.5 135.903 1189.11 137.267C1189.72 138.631 1190.25 140.127 1190.7 141.756C1191.16 143.375 1191.51 145.056 1191.77 146.798C1192.02 148.531 1192.15 150.241 1192.15 151.926C1192.15 154.18 1191.93 156.462 1191.48 158.773C1191.04 161.083 1190.44 163.228 1189.68 165.207C1188.92 167.187 1188.08 168.801 1187.15 170.051H1191.04C1192.84 167.523 1194.21 164.762 1195.15 161.77C1196.08 158.777 1196.55 155.496 1196.55 151.926ZM1179.13 148.04L1177.77 151.36C1175.21 150.32 1166.45 146.68 1161.53 146.68C1157.41 146.68 1154.73 149.2 1154.73 152.6C1154.73 159.12 1162.33 161.6 1171.01 161.84L1169.69 164.92C1158.93 164.28 1151.49 160.36 1151.49 152.64C1151.49 147.2 1155.61 143.8 1161.29 143.8C1165.97 143.8 1172.57 146.2 1175.41 147.08C1176.65 147.48 1177.97 147.84 1179.13 148.04ZM1136.54 137.622H1135.51V139.085H1136.54V137.622ZM1144.02 148.091L1138.13 135.733H1133.92L1128.03 148.091H1131.79L1136.18 138.517H1135.87L1140.21 148.091H1144.02ZM1110 173.474C1112.59 173.474 1114.84 173.238 1116.75 172.764C1118.64 172.291 1120.27 171.637 1121.63 170.804C1123 169.98 1124.17 169.033 1125.17 167.963L1122.95 166.273C1121.63 167.125 1119.93 167.854 1117.85 168.46C1115.77 169.076 1113.15 169.384 1110 169.384C1107.89 169.384 1105.99 169.232 1104.32 168.929C1102.64 168.635 1101.17 168.252 1099.9 167.778C1098.63 167.305 1097.55 166.803 1096.65 166.273L1094.76 167.963C1095.55 168.957 1096.65 169.871 1098.04 170.705C1099.43 171.538 1101.12 172.205 1103.11 172.707C1105.1 173.219 1107.39 173.474 1110 173.474ZM1084.5 137.622H1083.48V139.085H1084.5V137.622ZM1091.99 148.091L1086.1 135.733H1081.89L1076 148.091H1079.76L1084.15 138.517H1083.84L1088.18 148.091H1091.99ZM1063.45 151.926C1063.45 155.496 1063.92 158.777 1064.86 161.77C1065.79 164.762 1067.16 167.523 1068.96 170.051H1072.85C1072.15 169.114 1071.5 167.963 1070.89 166.599C1070.29 165.236 1069.76 163.744 1069.3 162.125C1068.85 160.496 1068.49 158.811 1068.24 157.068C1067.98 155.326 1067.85 153.612 1067.85 151.926C1067.85 149.682 1068.08 147.404 1068.52 145.094C1068.97 142.783 1069.57 140.638 1070.32 138.659C1071.08 136.68 1071.93 135.065 1072.85 133.815H1068.96C1067.16 136.344 1065.79 139.104 1064.86 142.097C1063.92 145.089 1063.45 148.366 1063.45 151.926ZM1052.96 148.04L1051.6 151.36C1049.04 150.32 1040.28 146.68 1035.36 146.68C1031.24 146.68 1028.56 149.2 1028.56 152.6C1028.56 159.12 1036.16 161.6 1044.84 161.84L1043.52 164.92C1032.76 164.28 1025.32 160.36 1025.32 152.64C1025.32 147.2 1029.44 143.8 1035.12 143.8C1039.8 143.8 1046.4 146.2 1049.24 147.08C1050.48 147.48 1051.8 147.84 1052.96 148.04Z" fill="white"/>
<path d="M905.554 154.926C905.554 151.366 905.085 148.089 904.147 145.097C903.21 142.104 901.841 139.344 900.042 136.815H896.15C896.851 137.753 897.504 138.903 898.11 140.267C898.716 141.631 899.247 143.127 899.701 144.756C900.156 146.375 900.511 148.056 900.767 149.798C901.022 151.531 901.15 153.241 901.15 154.926C901.15 157.18 900.928 159.462 900.483 161.773C900.038 164.083 899.436 166.228 898.679 168.207C897.921 170.187 897.078 171.801 896.15 173.051H900.042C901.841 170.523 903.21 167.762 904.147 164.77C905.085 161.777 905.554 158.496 905.554 154.926ZM888.127 151.04L886.767 154.36C884.207 153.32 875.447 149.68 870.527 149.68C866.407 149.68 863.727 152.2 863.727 155.6C863.727 162.12 871.327 164.6 880.007 164.84L878.687 167.92C867.927 167.28 860.487 163.36 860.487 155.64C860.487 150.2 864.607 146.8 870.287 146.8C874.967 146.8 881.567 149.2 884.407 150.08C885.647 150.48 886.967 150.84 888.127 151.04ZM845.536 140.622H844.513V142.085H845.536V140.622ZM853.022 151.091L847.127 138.733H842.922L837.027 151.091H840.792L845.181 141.517H844.868L849.215 151.091H853.022ZM818.998 176.474C821.593 176.474 823.842 176.238 825.745 175.764C827.639 175.291 829.268 174.637 830.632 173.804C831.995 172.98 833.174 172.033 834.169 170.963L831.953 169.273C830.627 170.125 828.927 170.854 826.853 171.46C824.77 172.076 822.152 172.384 818.998 172.384C816.886 172.384 814.993 172.232 813.316 171.929C811.64 171.635 810.168 171.252 808.899 170.778C807.63 170.305 806.546 169.803 805.646 169.273L803.757 170.963C804.552 171.957 805.646 172.871 807.038 173.705C808.43 174.538 810.12 175.205 812.109 175.707C814.098 176.219 816.394 176.474 818.998 176.474ZM793.505 140.622H792.482V142.085H793.505V140.622ZM800.99 151.091L795.096 138.733H790.891L784.996 151.091H788.76L793.15 141.517H792.837L797.184 151.091H800.99ZM772.45 154.926C772.45 158.496 772.919 161.777 773.856 164.77C774.794 167.762 776.162 170.523 777.961 173.051H781.853C781.153 172.114 780.499 170.963 779.893 169.599C779.287 168.236 778.757 166.744 778.302 165.125C777.848 163.496 777.493 161.811 777.237 160.068C776.981 158.326 776.853 156.612 776.853 154.926C776.853 152.682 777.076 150.404 777.521 148.094C777.966 145.783 778.567 143.638 779.325 141.659C780.083 139.68 780.925 138.065 781.853 136.815H777.961C776.162 139.344 774.794 142.104 773.856 145.097C772.919 148.089 772.45 151.366 772.45 154.926ZM761.955 151.04L760.595 154.36C758.035 153.32 749.275 149.68 744.355 149.68C740.235 149.68 737.555 152.2 737.555 155.6C737.555 162.12 745.155 164.6 753.835 164.84L752.515 167.92C741.755 167.28 734.315 163.36 734.315 155.64C734.315 150.2 738.435 146.8 744.115 146.8C748.795 146.8 755.395 149.2 758.235 150.08C759.475 150.48 760.795 150.84 761.955 151.04Z" fill="white"/>
<path d="M614.554 151.926C614.554 148.366 614.085 145.089 613.147 142.097C612.21 139.104 610.841 136.344 609.042 133.815H605.15C605.851 134.753 606.504 135.903 607.11 137.267C607.716 138.631 608.247 140.127 608.701 141.756C609.156 143.375 609.511 145.056 609.767 146.798C610.022 148.531 610.15 150.241 610.15 151.926C610.15 154.18 609.928 156.462 609.483 158.773C609.038 161.083 608.436 163.228 607.679 165.207C606.921 167.187 606.078 168.801 605.15 170.051H609.042C610.841 167.523 612.21 164.762 613.147 161.77C614.085 158.777 614.554 155.496 614.554 151.926ZM597.127 148.04L595.767 151.36C593.207 150.32 584.447 146.68 579.527 146.68C575.407 146.68 572.727 149.2 572.727 152.6C572.727 159.12 580.327 161.6 589.007 161.84L587.687 164.92C576.927 164.28 569.487 160.36 569.487 152.64C569.487 147.2 573.607 143.8 579.287 143.8C583.967 143.8 590.567 146.2 593.407 147.08C594.647 147.48 595.967 147.84 597.127 148.04ZM554.536 137.622H553.513V139.085H554.536V137.622ZM562.022 148.091L556.127 135.733H551.922L546.027 148.091H549.792L554.181 138.517H553.868L558.215 148.091H562.022ZM527.998 173.474C530.593 173.474 532.842 173.238 534.745 172.764C536.639 172.291 538.268 171.637 539.632 170.804C540.995 169.98 542.174 169.033 543.169 167.963L540.953 166.273C539.627 167.125 537.927 167.854 535.853 168.46C533.77 169.076 531.152 169.384 527.998 169.384C525.886 169.384 523.993 169.232 522.316 168.929C520.64 168.635 519.168 168.252 517.899 167.778C516.63 167.305 515.546 166.803 514.646 166.273L512.757 167.963C513.552 168.957 514.646 169.871 516.038 170.705C517.43 171.538 519.12 172.205 521.109 172.707C523.098 173.219 525.394 173.474 527.998 173.474ZM502.505 137.622H501.482V139.085H502.505V137.622ZM509.99 148.091L504.096 135.733H499.891L493.996 148.091H497.76L502.15 138.517H501.837L506.184 148.091H509.99ZM481.45 151.926C481.45 155.496 481.919 158.777 482.856 161.77C483.794 164.762 485.162 167.523 486.961 170.051H490.853C490.153 169.114 489.499 167.963 488.893 166.599C488.287 165.236 487.757 163.744 487.302 162.125C486.848 160.496 486.493 158.811 486.237 157.068C485.981 155.326 485.853 153.612 485.853 151.926C485.853 149.682 486.076 147.404 486.521 145.094C486.966 142.783 487.567 140.638 488.325 138.659C489.083 136.68 489.925 135.065 490.853 133.815H486.961C485.162 136.344 483.794 139.104 482.856 142.097C481.919 145.089 481.45 148.366 481.45 151.926ZM470.955 148.04L469.595 151.36C467.035 150.32 458.275 146.68 453.355 146.68C449.235 146.68 446.555 149.2 446.555 152.6C446.555 159.12 454.155 161.6 462.835 161.84L461.515 164.92C450.755 164.28 443.315 160.36 443.315 152.64C443.315 147.2 447.435 143.8 453.115 143.8C457.795 143.8 464.395 146.2 467.235 147.08C468.475 147.48 469.795 147.84 470.955 148.04Z" fill="white"/>
<path d="M323.554 151.926C323.554 148.366 323.085 145.089 322.147 142.097C321.21 139.104 319.841 136.344 318.042 133.815H314.15C314.851 134.753 315.504 135.903 316.11 137.267C316.716 138.631 317.247 140.127 317.701 141.756C318.156 143.375 318.511 145.056 318.767 146.798C319.022 148.531 319.15 150.241 319.15 151.926C319.15 154.18 318.928 156.462 318.483 158.773C318.038 161.083 317.436 163.228 316.679 165.207C315.921 167.187 315.078 168.801 314.15 170.051H318.042C319.841 167.523 321.21 164.762 322.147 161.77C323.085 158.777 323.554 155.496 323.554 151.926ZM306.127 148.04L304.767 151.36C302.207 150.32 293.447 146.68 288.527 146.68C284.407 146.68 281.727 149.2 281.727 152.6C281.727 159.12 289.327 161.6 298.007 161.84L296.687 164.92C285.927 164.28 278.487 160.36 278.487 152.64C278.487 147.2 282.607 143.8 288.287 143.8C292.967 143.8 299.567 146.2 302.407 147.08C303.647 147.48 304.967 147.84 306.127 148.04ZM263.536 137.622H262.513V139.085H263.536V137.622ZM271.022 148.091L265.127 135.733H260.922L255.027 148.091H258.792L263.181 138.517H262.868L267.215 148.091H271.022ZM236.998 173.474C239.593 173.474 241.842 173.238 243.745 172.764C245.639 172.291 247.268 171.637 248.632 170.804C249.995 169.98 251.174 169.033 252.169 167.963L249.953 166.273C248.627 167.125 246.927 167.854 244.853 168.46C242.77 169.076 240.152 169.384 236.998 169.384C234.886 169.384 232.993 169.232 231.316 168.929C229.64 168.635 228.168 168.252 226.899 167.778C225.63 167.305 224.546 166.803 223.646 166.273L221.757 167.963C222.552 168.957 223.646 169.871 225.038 170.705C226.43 171.538 228.12 172.205 230.109 172.707C232.098 173.219 234.394 173.474 236.998 173.474ZM211.505 137.622H210.482V139.085H211.505V137.622ZM218.99 148.091L213.096 135.733H208.891L202.996 148.091H206.76L211.15 138.517H210.837L215.184 148.091H218.99ZM190.45 151.926C190.45 155.496 190.919 158.777 191.856 161.77C192.794 164.762 194.162 167.523 195.961 170.051H199.853C199.153 169.114 198.499 167.963 197.893 166.599C197.287 165.236 196.757 163.744 196.302 162.125C195.848 160.496 195.493 158.811 195.237 157.068C194.981 155.326 194.853 153.612 194.853 151.926C194.853 149.682 195.076 147.404 195.521 145.094C195.966 142.783 196.567 140.638 197.325 138.659C198.083 136.68 198.925 135.065 199.853 133.815H195.961C194.162 136.344 192.794 139.104 191.856 142.097C190.919 145.089 190.45 148.366 190.45 151.926ZM179.955 148.04L178.595 151.36C176.035 150.32 167.275 146.68 162.355 146.68C158.235 146.68 155.555 149.2 155.555 152.6C155.555 159.12 163.155 161.6 171.835 161.84L170.515 164.92C159.755 164.28 152.315 160.36 152.315 152.64C152.315 147.2 156.435 143.8 162.115 143.8C166.795 143.8 173.395 146.2 176.235 147.08C177.475 147.48 178.795 147.84 179.955 148.04Z" fill="white"/>
<path d="M1731.45 63.9261C1731.45 60.3655 1731.91 57.089 1732.85 54.0966C1733.79 51.1042 1735.16 48.3437 1736.96 45.8153H1740.85C1740.15 46.7528 1739.5 47.9034 1738.89 49.267C1738.28 50.6307 1737.75 52.1269 1737.3 53.7557C1736.84 55.375 1736.49 57.0559 1736.23 58.7983C1735.98 60.5312 1735.85 62.2405 1735.85 63.9261C1735.85 66.1799 1736.07 68.4621 1736.52 70.7727C1736.96 73.0833 1737.56 75.2282 1738.32 77.2074C1739.08 79.1866 1739.92 80.8011 1740.85 82.0511H1736.96C1735.16 79.5227 1733.79 76.7623 1732.85 73.7699C1731.91 70.7775 1731.45 67.4962 1731.45 63.9261ZM1748.87 60.04L1750.23 63.36C1752.79 62.32 1761.55 58.68 1766.47 58.68C1770.59 58.68 1773.27 61.2 1773.27 64.6C1773.27 71.12 1765.67 73.6 1756.99 73.84L1758.31 76.92C1769.07 76.28 1776.51 72.36 1776.51 64.64C1776.51 59.2 1772.39 55.8 1766.71 55.8C1762.03 55.8 1755.43 58.2 1752.59 59.08C1751.35 59.48 1750.03 59.84 1748.87 60.04ZM1791.46 49.6222H1792.49V51.0852H1791.46V49.6222ZM1783.98 60.0909L1789.87 47.733H1794.08L1799.97 60.0909H1796.21L1791.82 50.517H1792.13L1787.78 60.0909H1783.98ZM1818 85.4744C1815.41 85.4744 1813.16 85.2377 1811.25 84.7642C1809.36 84.2907 1807.73 83.6373 1806.37 82.804C1805 81.9801 1803.83 81.0331 1802.83 79.9631L1805.05 78.2727C1806.37 79.125 1808.07 79.8542 1810.15 80.4602C1812.23 81.0758 1814.85 81.3835 1818 81.3835C1820.11 81.3835 1822.01 81.232 1823.68 80.929C1825.36 80.6354 1826.83 80.2519 1828.1 79.7784C1829.37 79.3049 1830.45 78.803 1831.35 78.2727L1833.24 79.9631C1832.45 80.9574 1831.35 81.8712 1829.96 82.7045C1828.57 83.5379 1826.88 84.2055 1824.89 84.7074C1822.9 85.2188 1820.61 85.4744 1818 85.4744ZM1843.5 49.6222H1844.52V51.0852H1843.5V49.6222ZM1836.01 60.0909L1841.9 47.733H1846.11L1852 60.0909H1848.24L1843.85 50.517H1844.16L1839.82 60.0909H1836.01ZM1864.55 63.9261C1864.55 67.4962 1864.08 70.7775 1863.14 73.7699C1862.21 76.7623 1860.84 79.5227 1859.04 82.0511H1855.15C1855.85 81.1136 1856.5 79.9631 1857.11 78.5994C1857.71 77.2358 1858.24 75.7443 1858.7 74.125C1859.15 72.4962 1859.51 70.8106 1859.76 69.0682C1860.02 67.3258 1860.15 65.6117 1860.15 63.9261C1860.15 61.6818 1859.92 59.4044 1859.48 57.0938C1859.03 54.7831 1858.43 52.6383 1857.67 50.6591C1856.92 48.6799 1856.07 47.0653 1855.15 45.8153H1859.04C1860.84 48.3437 1862.21 51.1042 1863.14 54.0966C1864.08 57.089 1864.55 60.3655 1864.55 63.9261ZM1875.04 60.04L1876.4 63.36C1878.96 62.32 1887.72 58.68 1892.64 58.68C1896.76 58.68 1899.44 61.2 1899.44 64.6C1899.44 71.12 1891.84 73.6 1883.16 73.84L1884.48 76.92C1895.24 76.28 1902.68 72.36 1902.68 64.64C1902.68 59.2 1898.56 55.8 1892.88 55.8C1888.2 55.8 1881.6 58.2 1878.76 59.08C1877.52 59.48 1876.2 59.84 1875.04 60.04Z" fill="white"/>
<path d="M1445.45 63.9261C1445.45 60.3655 1445.91 57.089 1446.85 54.0966C1447.79 51.1042 1449.16 48.3437 1450.96 45.8153H1454.85C1454.15 46.7528 1453.5 47.9034 1452.89 49.267C1452.28 50.6307 1451.75 52.1269 1451.3 53.7557C1450.84 55.375 1450.49 57.0559 1450.23 58.7983C1449.98 60.5312 1449.85 62.2405 1449.85 63.9261C1449.85 66.1799 1450.07 68.4621 1450.52 70.7727C1450.96 73.0833 1451.56 75.2282 1452.32 77.2074C1453.08 79.1866 1453.92 80.8011 1454.85 82.0511H1450.96C1449.16 79.5227 1447.79 76.7623 1446.85 73.7699C1445.91 70.7775 1445.45 67.4962 1445.45 63.9261ZM1462.87 60.04L1464.23 63.36C1466.79 62.32 1475.55 58.68 1480.47 58.68C1484.59 58.68 1487.27 61.2 1487.27 64.6C1487.27 71.12 1479.67 73.6 1470.99 73.84L1472.31 76.92C1483.07 76.28 1490.51 72.36 1490.51 64.64C1490.51 59.2 1486.39 55.8 1480.71 55.8C1476.03 55.8 1469.43 58.2 1466.59 59.08C1465.35 59.48 1464.03 59.84 1462.87 60.04ZM1505.46 49.6222H1506.49V51.0852H1505.46V49.6222ZM1497.98 60.0909L1503.87 47.733H1508.08L1513.97 60.0909H1510.21L1505.82 50.517H1506.13L1501.78 60.0909H1497.98ZM1532 85.4744C1529.41 85.4744 1527.16 85.2377 1525.25 84.7642C1523.36 84.2907 1521.73 83.6373 1520.37 82.804C1519 81.9801 1517.83 81.0331 1516.83 79.9631L1519.05 78.2727C1520.37 79.125 1522.07 79.8542 1524.15 80.4602C1526.23 81.0758 1528.85 81.3835 1532 81.3835C1534.11 81.3835 1536.01 81.232 1537.68 80.929C1539.36 80.6354 1540.83 80.2519 1542.1 79.7784C1543.37 79.3049 1544.45 78.803 1545.35 78.2727L1547.24 79.9631C1546.45 80.9574 1545.35 81.8712 1543.96 82.7045C1542.57 83.5379 1540.88 84.2055 1538.89 84.7074C1536.9 85.2188 1534.61 85.4744 1532 85.4744ZM1557.5 49.6222H1558.52V51.0852H1557.5V49.6222ZM1550.01 60.0909L1555.9 47.733H1560.11L1566 60.0909H1562.24L1557.85 50.517H1558.16L1553.82 60.0909H1550.01ZM1578.55 63.9261C1578.55 67.4962 1578.08 70.7775 1577.14 73.7699C1576.21 76.7623 1574.84 79.5227 1573.04 82.0511H1569.15C1569.85 81.1136 1570.5 79.9631 1571.11 78.5994C1571.71 77.2358 1572.24 75.7443 1572.7 74.125C1573.15 72.4962 1573.51 70.8106 1573.76 69.0682C1574.02 67.3258 1574.15 65.6117 1574.15 63.9261C1574.15 61.6818 1573.92 59.4044 1573.48 57.0938C1573.03 54.7831 1572.43 52.6383 1571.67 50.6591C1570.92 48.6799 1570.07 47.0653 1569.15 45.8153H1573.04C1574.84 48.3437 1576.21 51.1042 1577.14 54.0966C1578.08 57.089 1578.55 60.3655 1578.55 63.9261ZM1589.04 60.04L1590.4 63.36C1592.96 62.32 1601.72 58.68 1606.64 58.68C1610.76 58.68 1613.44 61.2 1613.44 64.6C1613.44 71.12 1605.84 73.6 1597.16 73.84L1598.48 76.92C1609.24 76.28 1616.68 72.36 1616.68 64.64C1616.68 59.2 1612.56 55.8 1606.88 55.8C1602.2 55.8 1595.6 58.2 1592.76 59.08C1591.52 59.48 1590.2 59.84 1589.04 60.04Z" fill="white"/>
<path d="M1159.45 63.9261C1159.45 60.3655 1159.92 57.089 1160.85 54.0966C1161.79 51.1042 1163.16 48.3437 1164.96 45.8153H1168.85C1168.15 46.7528 1167.5 47.9034 1166.89 49.267C1166.28 50.6307 1165.75 52.1269 1165.3 53.7557C1164.84 55.375 1164.49 57.0559 1164.23 58.7983C1163.98 60.5312 1163.85 62.2405 1163.85 63.9261C1163.85 66.1799 1164.07 68.4621 1164.52 70.7727C1164.96 73.0833 1165.56 75.2282 1166.32 77.2074C1167.08 79.1866 1167.92 80.8011 1168.85 82.0511H1164.96C1163.16 79.5227 1161.79 76.7623 1160.85 73.7699C1159.92 70.7775 1159.45 67.4962 1159.45 63.9261ZM1176.87 60.04L1178.23 63.36C1180.79 62.32 1189.55 58.68 1194.47 58.68C1198.59 58.68 1201.27 61.2 1201.27 64.6C1201.27 71.12 1193.67 73.6 1184.99 73.84L1186.31 76.92C1197.07 76.28 1204.51 72.36 1204.51 64.64C1204.51 59.2 1200.39 55.8 1194.71 55.8C1190.03 55.8 1183.43 58.2 1180.59 59.08C1179.35 59.48 1178.03 59.84 1176.87 60.04ZM1219.46 49.6222H1220.49V51.0852H1219.46V49.6222ZM1211.98 60.0909L1217.87 47.733H1222.08L1227.97 60.0909H1224.21L1219.82 50.517H1220.13L1215.79 60.0909H1211.98ZM1246 85.4744C1243.41 85.4744 1241.16 85.2377 1239.25 84.7642C1237.36 84.2907 1235.73 83.6373 1234.37 82.804C1233 81.9801 1231.83 81.0331 1230.83 79.9631L1233.05 78.2727C1234.37 79.125 1236.07 79.8542 1238.15 80.4602C1240.23 81.0758 1242.85 81.3835 1246 81.3835C1248.11 81.3835 1250.01 81.232 1251.68 80.929C1253.36 80.6354 1254.83 80.2519 1256.1 79.7784C1257.37 79.3049 1258.45 78.803 1259.35 78.2727L1261.24 79.9631C1260.45 80.9574 1259.35 81.8712 1257.96 82.7045C1256.57 83.5379 1254.88 84.2055 1252.89 84.7074C1250.9 85.2188 1248.61 85.4744 1246 85.4744ZM1271.5 49.6222H1272.52V51.0852H1271.5V49.6222ZM1264.01 60.0909L1269.9 47.733H1274.11L1280 60.0909H1276.24L1271.85 50.517H1272.16L1267.82 60.0909H1264.01ZM1292.55 63.9261C1292.55 67.4962 1292.08 70.7775 1291.14 73.7699C1290.21 76.7623 1288.84 79.5227 1287.04 82.0511H1283.15C1283.85 81.1136 1284.5 79.9631 1285.11 78.5994C1285.71 77.2358 1286.24 75.7443 1286.7 74.125C1287.15 72.4962 1287.51 70.8106 1287.76 69.0682C1288.02 67.3258 1288.15 65.6117 1288.15 63.9261C1288.15 61.6818 1287.92 59.4044 1287.48 57.0938C1287.03 54.7831 1286.43 52.6383 1285.68 50.6591C1284.92 48.6799 1284.07 47.0653 1283.15 45.8153H1287.04C1288.84 48.3437 1290.21 51.1042 1291.14 54.0966C1292.08 57.089 1292.55 60.3655 1292.55 63.9261ZM1303.04 60.04L1304.4 63.36C1306.96 62.32 1315.72 58.68 1320.64 58.68C1324.76 58.68 1327.44 61.2 1327.44 64.6C1327.44 71.12 1319.84 73.6 1311.16 73.84L1312.48 76.92C1323.24 76.28 1330.68 72.36 1330.68 64.64C1330.68 59.2 1326.56 55.8 1320.88 55.8C1316.2 55.8 1309.6 58.2 1306.76 59.08C1305.52 59.48 1304.2 59.84 1303.04 60.04Z" fill="white"/>
<path d="M873.446 63.9261C873.446 60.3655 873.915 57.089 874.852 54.0966C875.79 51.1042 877.158 48.3437 878.957 45.8153H882.85C882.149 46.7528 881.495 47.9034 880.889 49.267C880.283 50.6307 879.753 52.1269 879.298 53.7557C878.844 55.375 878.489 57.0559 878.233 58.7983C877.977 60.5312 877.85 62.2405 877.85 63.9261C877.85 66.1799 878.072 68.4621 878.517 70.7727C878.962 73.0833 879.564 75.2282 880.321 77.2074C881.079 79.1866 881.922 80.8011 882.85 82.0511H878.957C877.158 79.5227 875.79 76.7623 874.852 73.7699C873.915 70.7775 873.446 67.4962 873.446 63.9261ZM890.872 60.04L892.232 63.36C894.792 62.32 903.552 58.68 908.472 58.68C912.592 58.68 915.272 61.2 915.272 64.6C915.272 71.12 907.672 73.6 898.992 73.84L900.312 76.92C911.072 76.28 918.512 72.36 918.512 64.64C918.512 59.2 914.392 55.8 908.712 55.8C904.032 55.8 897.432 58.2 894.592 59.08C893.352 59.48 892.032 59.84 890.872 60.04ZM933.464 49.6222H934.487V51.0852H933.464V49.6222ZM925.978 60.0909L931.873 47.733H936.078L941.972 60.0909H938.208L933.819 50.517H934.132L929.785 60.0909H925.978ZM960.002 85.4744C957.407 85.4744 955.158 85.2377 953.254 84.7642C951.36 84.2907 949.732 83.6373 948.368 82.804C947.004 81.9801 945.825 81.0331 944.831 79.9631L947.047 78.2727C948.373 79.125 950.073 79.8542 952.146 80.4602C954.23 81.0758 956.848 81.3835 960.002 81.3835C962.113 81.3835 964.007 81.232 965.683 80.929C967.359 80.6354 968.832 80.2519 970.101 79.7784C971.37 79.3049 972.454 78.803 973.354 78.2727L975.243 79.9631C974.448 80.9574 973.354 81.8712 971.962 82.7045C970.57 83.5379 968.879 84.2055 966.891 84.7074C964.902 85.2188 962.606 85.4744 960.002 85.4744ZM985.495 49.6222H986.518V51.0852H985.495V49.6222ZM978.009 60.0909L983.904 47.733H988.109L994.004 60.0909H990.239L985.85 50.517H986.163L981.816 60.0909H978.009ZM1006.55 63.9261C1006.55 67.4962 1006.08 70.7775 1005.14 73.7699C1004.21 76.7623 1002.84 79.5227 1001.04 82.0511H997.146C997.847 81.1136 998.501 79.9631 999.107 78.5994C999.713 77.2358 1000.24 75.7443 1000.7 74.125C1001.15 72.4962 1001.51 70.8106 1001.76 69.0682C1002.02 67.3258 1002.15 65.6117 1002.15 63.9261C1002.15 61.6818 1001.92 59.4044 1001.48 57.0938C1001.03 54.7831 1000.43 52.6383 999.675 50.6591C998.917 48.6799 998.074 47.0653 997.146 45.8153H1001.04C1002.84 48.3437 1004.21 51.1042 1005.14 54.0966C1006.08 57.089 1006.55 60.3655 1006.55 63.9261ZM1017.04 60.04L1018.4 63.36C1020.96 62.32 1029.72 58.68 1034.64 58.68C1038.76 58.68 1041.44 61.2 1041.44 64.6C1041.44 71.12 1033.84 73.6 1025.16 73.84L1026.48 76.92C1037.24 76.28 1044.68 72.36 1044.68 64.64C1044.68 59.2 1040.56 55.8 1034.88 55.8C1030.2 55.8 1023.6 58.2 1020.76 59.08C1019.52 59.48 1018.2 59.84 1017.04 60.04Z" fill="white"/>
<path d="M587.446 63.9261C587.446 60.3655 587.915 57.089 588.852 54.0966C589.79 51.1042 591.158 48.3437 592.957 45.8153H596.85C596.149 46.7528 595.495 47.9034 594.889 49.267C594.283 50.6307 593.753 52.1269 593.298 53.7557C592.844 55.375 592.489 57.0559 592.233 58.7983C591.977 60.5312 591.85 62.2405 591.85 63.9261C591.85 66.1799 592.072 68.4621 592.517 70.7727C592.962 73.0833 593.564 75.2282 594.321 77.2074C595.079 79.1866 595.922 80.8011 596.85 82.0511H592.957C591.158 79.5227 589.79 76.7623 588.852 73.7699C587.915 70.7775 587.446 67.4962 587.446 63.9261ZM604.872 60.04L606.232 63.36C608.792 62.32 617.552 58.68 622.472 58.68C626.592 58.68 629.272 61.2 629.272 64.6C629.272 71.12 621.672 73.6 612.992 73.84L614.312 76.92C625.072 76.28 632.512 72.36 632.512 64.64C632.512 59.2 628.392 55.8 622.712 55.8C618.032 55.8 611.432 58.2 608.592 59.08C607.352 59.48 606.032 59.84 604.872 60.04ZM647.464 49.6222H648.487V51.0852H647.464V49.6222ZM639.978 60.0909L645.873 47.733H650.078L655.972 60.0909H652.208L647.819 50.517H648.132L643.785 60.0909H639.978ZM674.002 85.4744C671.407 85.4744 669.158 85.2377 667.254 84.7642C665.36 84.2907 663.732 83.6373 662.368 82.804C661.004 81.9801 659.825 81.0331 658.831 79.9631L661.047 78.2727C662.373 79.125 664.073 79.8542 666.146 80.4602C668.23 81.0758 670.848 81.3835 674.002 81.3835C676.113 81.3835 678.007 81.232 679.683 80.929C681.359 80.6354 682.832 80.2519 684.101 79.7784C685.37 79.3049 686.454 78.803 687.354 78.2727L689.243 79.9631C688.448 80.9574 687.354 81.8712 685.962 82.7045C684.57 83.5379 682.879 84.2055 680.891 84.7074C678.902 85.2188 676.606 85.4744 674.002 85.4744ZM699.495 49.6222H700.518V51.0852H699.495V49.6222ZM692.009 60.0909L697.904 47.733H702.109L708.004 60.0909H704.239L699.85 50.517H700.163L695.816 60.0909H692.009ZM720.55 63.9261C720.55 67.4962 720.081 70.7775 719.144 73.7699C718.206 76.7623 716.838 79.5227 715.038 82.0511H711.146C711.847 81.1136 712.501 79.9631 713.107 78.5994C713.713 77.2358 714.243 75.7443 714.698 74.125C715.152 72.4962 715.507 70.8106 715.763 69.0682C716.019 67.3258 716.146 65.6117 716.146 63.9261C716.146 61.6818 715.924 59.4044 715.479 57.0938C715.034 54.7831 714.432 52.6383 713.675 50.6591C712.917 48.6799 712.074 47.0653 711.146 45.8153H715.038C716.838 48.3437 718.206 51.1042 719.144 54.0966C720.081 57.089 720.55 60.3655 720.55 63.9261ZM731.044 60.04L732.404 63.36C734.964 62.32 743.724 58.68 748.644 58.68C752.764 58.68 755.444 61.2 755.444 64.6C755.444 71.12 747.844 73.6 739.164 73.84L740.484 76.92C751.244 76.28 758.684 72.36 758.684 64.64C758.684 59.2 754.564 55.8 748.884 55.8C744.204 55.8 737.604 58.2 734.764 59.08C733.524 59.48 732.204 59.84 731.044 60.04Z" fill="white"/>
<path d="M301.446 63.9261C301.446 60.3655 301.915 57.089 302.852 54.0966C303.79 51.1042 305.158 48.3437 306.957 45.8153H310.85C310.149 46.7528 309.495 47.9034 308.889 49.267C308.283 50.6307 307.753 52.1269 307.298 53.7557C306.844 55.375 306.489 57.0559 306.233 58.7983C305.977 60.5312 305.85 62.2405 305.85 63.9261C305.85 66.1799 306.072 68.4621 306.517 70.7727C306.962 73.0833 307.564 75.2282 308.321 77.2074C309.079 79.1866 309.922 80.8011 310.85 82.0511H306.957C305.158 79.5227 303.79 76.7623 302.852 73.7699C301.915 70.7775 301.446 67.4962 301.446 63.9261ZM318.872 60.04L320.232 63.36C322.792 62.32 331.552 58.68 336.472 58.68C340.592 58.68 343.272 61.2 343.272 64.6C343.272 71.12 335.672 73.6 326.992 73.84L328.312 76.92C339.072 76.28 346.512 72.36 346.512 64.64C346.512 59.2 342.392 55.8 336.712 55.8C332.032 55.8 325.432 58.2 322.592 59.08C321.352 59.48 320.032 59.84 318.872 60.04ZM361.464 49.6222H362.487V51.0852H361.464V49.6222ZM353.978 60.0909L359.873 47.733H364.078L369.972 60.0909H366.208L361.819 50.517H362.132L357.785 60.0909H353.978ZM388.002 85.4744C385.407 85.4744 383.158 85.2377 381.254 84.7642C379.36 84.2907 377.732 83.6373 376.368 82.804C375.004 81.9801 373.825 81.0331 372.831 79.9631L375.047 78.2727C376.373 79.125 378.073 79.8542 380.146 80.4602C382.23 81.0758 384.848 81.3835 388.002 81.3835C390.113 81.3835 392.007 81.232 393.683 80.929C395.359 80.6354 396.832 80.2519 398.101 79.7784C399.37 79.3049 400.454 78.803 401.354 78.2727L403.243 79.9631C402.448 80.9574 401.354 81.8712 399.962 82.7045C398.57 83.5379 396.879 84.2055 394.891 84.7074C392.902 85.2188 390.606 85.4744 388.002 85.4744ZM413.495 49.6222H414.518V51.0852H413.495V49.6222ZM406.009 60.0909L411.904 47.733H416.109L422.004 60.0909H418.239L413.85 50.517H414.163L409.816 60.0909H406.009ZM434.55 63.9261C434.55 67.4962 434.081 70.7775 433.144 73.7699C432.206 76.7623 430.838 79.5227 429.038 82.0511H425.146C425.847 81.1136 426.501 79.9631 427.107 78.5994C427.713 77.2358 428.243 75.7443 428.698 74.125C429.152 72.4962 429.507 70.8106 429.763 69.0682C430.019 67.3258 430.146 65.6117 430.146 63.9261C430.146 61.6818 429.924 59.4044 429.479 57.0938C429.034 54.7831 428.432 52.6383 427.675 50.6591C426.917 48.6799 426.074 47.0653 425.146 45.8153H429.038C430.838 48.3437 432.206 51.1042 433.144 54.0966C434.081 57.089 434.55 60.3655 434.55 63.9261ZM445.044 60.04L446.404 63.36C448.964 62.32 457.724 58.68 462.644 58.68C466.764 58.68 469.444 61.2 469.444 64.6C469.444 71.12 461.844 73.6 453.164 73.84L454.484 76.92C465.244 76.28 472.684 72.36 472.684 64.64C472.684 59.2 468.564 55.8 462.884 55.8C458.204 55.8 451.604 58.2 448.764 59.08C447.524 59.48 446.204 59.84 445.044 60.04Z" fill="white"/>
<path d="M15.4464 63.9261C15.4464 60.3655 15.9151 57.089 16.8526 54.0966C17.7901 51.1042 19.1585 48.3437 20.9577 45.8153H24.8498C24.149 46.7528 23.4956 47.9034 22.8896 49.267C22.2835 50.6307 21.7532 52.1269 21.2987 53.7557C20.8441 55.375 20.489 57.0559 20.2333 58.7983C19.9776 60.5312 19.8498 62.2405 19.8498 63.9261C19.8498 66.1799 20.0723 68.4621 20.5174 70.7727C20.9625 73.0833 21.5638 75.2282 22.3214 77.2074C23.079 79.1866 23.9218 80.8011 24.8498 82.0511H20.9577C19.1585 79.5227 17.7901 76.7623 16.8526 73.7699C15.9151 70.7775 15.4464 67.4962 15.4464 63.9261ZM32.8727 60.04L34.2327 63.36C36.7927 62.32 45.5527 58.68 50.4727 58.68C54.5927 58.68 57.2727 61.2 57.2727 64.6C57.2727 71.12 49.6727 73.6 40.9927 73.84L42.3127 76.92C53.0727 76.28 60.5127 72.36 60.5127 64.64C60.5127 59.2 56.3927 55.8 50.7127 55.8C46.0327 55.8 39.4327 58.2 36.5927 59.08C35.3527 59.48 34.0327 59.84 32.8727 60.04ZM75.4641 49.6222H76.4869V51.0852H75.4641V49.6222ZM67.9783 60.0909L73.8732 47.733H78.0778L83.9727 60.0909H80.2085L75.8192 50.517H76.1317L71.7852 60.0909H67.9783ZM102.002 85.4744C99.4071 85.4744 97.158 85.2377 95.2546 84.7642C93.3607 84.2907 91.7319 83.6373 90.3683 82.804C89.0046 81.9801 87.8256 81.0331 86.8313 79.9631L89.0472 78.2727C90.373 79.125 92.0728 79.8542 94.1467 80.4602C96.23 81.0758 98.8484 81.3835 102.002 81.3835C104.114 81.3835 106.007 81.232 107.684 80.929C109.36 80.6354 110.832 80.2519 112.101 79.7784C113.37 79.3049 114.454 78.803 115.354 78.2727L117.243 79.9631C116.448 80.9574 115.354 81.8712 113.962 82.7045C112.57 83.5379 110.88 84.2055 108.891 84.7074C106.902 85.2188 104.606 85.4744 102.002 85.4744ZM127.495 49.6222H128.518V51.0852H127.495V49.6222ZM120.01 60.0909L125.904 47.733H130.109L136.004 60.0909H132.24L127.85 50.517H128.163L123.816 60.0909H120.01ZM148.55 63.9261C148.55 67.4962 148.081 70.7775 147.144 73.7699C146.206 76.7623 144.838 79.5227 143.039 82.0511H139.147C139.847 81.1136 140.501 79.9631 141.107 78.5994C141.713 77.2358 142.243 75.7443 142.698 74.125C143.152 72.4962 143.507 70.8106 143.763 69.0682C144.019 67.3258 144.147 65.6117 144.147 63.9261C144.147 61.6818 143.924 59.4044 143.479 57.0938C143.034 54.7831 142.433 52.6383 141.675 50.6591C140.917 48.6799 140.075 47.0653 139.147 45.8153H143.039C144.838 48.3437 146.206 51.1042 147.144 54.0966C148.081 57.089 148.55 60.3655 148.55 63.9261ZM159.045 60.04L160.405 63.36C162.965 62.32 171.725 58.68 176.645 58.68C180.765 58.68 183.445 61.2 183.445 64.6C183.445 71.12 175.845 73.6 167.165 73.84L168.485 76.92C179.245 76.28 186.685 72.36 186.685 64.64C186.685 59.2 182.565 55.8 176.885 55.8C172.205 55.8 165.605 58.2 162.765 59.08C161.525 59.48 160.205 59.84 159.045 60.04Z" fill="white"/>
<rect x="0.5" y="0.5" width="1919" height="299" stroke="black"/>
</svg>
