<svg width="350" height="500" viewBox="0 0 350 500" fill="none" xmlns="http://www.w3.org/2000/svg">
<rect width="350" height="500" fill="#D6D6D6"/>
<path d="M88.4464 250.926C88.4464 247.366 88.9151 244.089 89.8526 241.097C90.7901 238.104 92.1585 235.344 93.9577 232.815H97.8498C97.149 233.753 96.4956 234.903 95.8896 236.267C95.2835 237.631 94.7532 239.127 94.2987 240.756C93.8441 242.375 93.489 244.056 93.2333 245.798C92.9776 247.531 92.8498 249.241 92.8498 250.926C92.8498 253.18 93.0723 255.462 93.5174 257.773C93.9625 260.083 94.5638 262.228 95.3214 264.207C96.079 266.187 96.9218 267.801 97.8498 269.051H93.9577C92.1585 266.523 90.7901 263.762 89.8526 260.77C88.9151 257.777 88.4464 254.496 88.4464 250.926ZM105.873 247.04L107.233 250.36C109.793 249.32 118.553 245.68 123.473 245.68C127.593 245.68 130.273 248.2 130.273 251.6C130.273 258.12 122.673 260.6 113.993 260.84L115.313 263.92C126.073 263.28 133.513 259.36 133.513 251.64C133.513 246.2 129.393 242.8 123.713 242.8C119.033 242.8 112.433 245.2 109.593 246.08C108.353 246.48 107.033 246.84 105.873 247.04ZM148.464 236.622H149.487V238.085H148.464V236.622ZM140.978 247.091L146.873 234.733H151.078L156.973 247.091H153.208L148.819 237.517H149.132L144.785 247.091H140.978ZM175.002 272.474C172.407 272.474 170.158 272.238 168.255 271.764C166.361 271.291 164.732 270.637 163.368 269.804C162.005 268.98 160.826 268.033 159.831 266.963L162.047 265.273C163.373 266.125 165.073 266.854 167.147 267.46C169.23 268.076 171.848 268.384 175.002 268.384C177.114 268.384 179.007 268.232 180.684 267.929C182.36 267.635 183.832 267.252 185.101 266.778C186.37 266.305 187.454 265.803 188.354 265.273L190.243 266.963C189.448 267.957 188.354 268.871 186.962 269.705C185.57 270.538 183.88 271.205 181.891 271.707C179.902 272.219 177.606 272.474 175.002 272.474ZM200.495 236.622H201.518V238.085H200.495V236.622ZM193.01 247.091L198.904 234.733H203.109L209.004 247.091H205.24L200.85 237.517H201.163L196.816 247.091H193.01ZM221.55 250.926C221.55 254.496 221.081 257.777 220.144 260.77C219.206 263.762 217.838 266.523 216.039 269.051H212.147C212.847 268.114 213.501 266.963 214.107 265.599C214.713 264.236 215.243 262.744 215.698 261.125C216.152 259.496 216.507 257.811 216.763 256.068C217.019 254.326 217.147 252.612 217.147 250.926C217.147 248.682 216.924 246.404 216.479 244.094C216.034 241.783 215.433 239.638 214.675 237.659C213.917 235.68 213.075 234.065 212.147 232.815H216.039C217.838 235.344 219.206 238.104 220.144 241.097C221.081 244.089 221.55 247.366 221.55 250.926ZM232.045 247.04L233.405 250.36C235.965 249.32 244.725 245.68 249.645 245.68C253.765 245.68 256.445 248.2 256.445 251.6C256.445 258.12 248.845 260.6 240.165 260.84L241.485 263.92C252.245 263.28 259.685 259.36 259.685 251.64C259.685 246.2 255.565 242.8 249.885 242.8C245.205 242.8 238.605 245.2 235.765 246.08C234.525 246.48 233.205 246.84 232.045 247.04Z" fill="white"/>
</svg>
