<svg width="350" height="500" viewBox="0 0 350 500" fill="none" xmlns="http://www.w3.org/2000/svg">
<rect width="350" height="500" fill="#D6D6D6"/>
<path d="M113.035 251.8V250.32C113.035 246.987 113.769 243.893 115.235 241.04C116.729 238.187 118.955 235.507 121.915 233L122.835 233.96C120.542 236.12 118.915 238.613 117.955 241.44C117.022 244.267 116.555 247.227 116.555 250.32V251.8C116.555 254.867 117.022 257.827 117.955 260.68C118.915 263.507 120.542 266 122.835 268.16L121.915 269.12C118.955 266.613 116.729 263.933 115.235 261.08C113.769 258.2 113.035 255.107 113.035 251.8ZM139.593 245.76C139.379 246.107 139.073 246.547 138.673 247.08C138.273 247.613 137.806 248.173 137.273 248.76C136.766 249.347 136.246 249.907 135.713 250.44C135.206 250.947 134.726 251.387 134.273 251.76H132.273V251.28C132.646 250.773 133.046 250.173 133.473 249.48C133.899 248.787 134.313 248.08 134.713 247.36C135.139 246.613 135.486 245.947 135.753 245.36H139.593V245.76ZM132.553 245.76C132.339 246.107 132.033 246.547 131.633 247.08C131.233 247.613 130.766 248.173 130.233 248.76C129.726 249.347 129.206 249.907 128.673 250.44C128.166 250.947 127.686 251.387 127.233 251.76H125.233V251.28C125.606 250.773 126.006 250.173 126.433 249.48C126.859 248.787 127.273 248.08 127.673 247.36C128.073 246.613 128.419 245.947 128.713 245.36H132.553V245.76ZM149.491 238.48C150.931 238.48 152.144 238.76 153.131 239.32C154.118 239.853 154.864 240.613 155.371 241.6C155.904 242.587 156.171 243.747 156.171 245.08H153.731C153.731 244.04 153.584 243.16 153.291 242.44C152.998 241.72 152.531 241.173 151.891 240.8C151.251 240.4 150.451 240.2 149.491 240.2C147.998 240.2 146.904 240.627 146.211 241.48C145.518 242.333 145.171 243.533 145.171 245.08H142.731C142.731 243.747 142.971 242.587 143.451 241.6C143.958 240.613 144.704 239.853 145.691 239.32C146.704 238.76 147.971 238.48 149.491 238.48ZM181.718 245.08C181.718 246.067 181.571 246.973 181.278 247.8C180.984 248.6 180.558 249.293 179.998 249.88C179.438 250.467 178.731 250.92 177.878 251.24C177.051 251.533 176.091 251.68 174.998 251.68C173.878 251.68 172.891 251.52 172.038 251.2C171.211 250.88 170.518 250.44 169.958 249.88C169.398 249.293 168.971 248.6 168.678 247.8C168.411 246.973 168.278 246.067 168.278 245.08H170.718C170.718 246.093 170.864 246.973 171.158 247.72C171.478 248.44 171.944 249 172.558 249.4C173.198 249.8 174.011 250 174.998 250C175.984 250 176.798 249.8 177.438 249.4C178.078 249 178.544 248.44 178.838 247.72C179.131 246.973 179.278 246.093 179.278 245.08H181.718ZM200.585 238.48C202.025 238.48 203.238 238.76 204.225 239.32C205.211 239.853 205.958 240.613 206.465 241.6C206.998 242.587 207.265 243.747 207.265 245.08H204.825C204.825 244.04 204.678 243.16 204.385 242.44C204.091 241.72 203.625 241.173 202.985 240.8C202.345 240.4 201.545 240.2 200.585 240.2C199.091 240.2 197.998 240.627 197.305 241.48C196.611 242.333 196.265 243.533 196.265 245.08H193.825C193.825 243.747 194.065 242.587 194.545 241.6C195.051 240.613 195.798 239.853 196.785 239.32C197.798 238.76 199.065 238.48 200.585 238.48ZM224.749 245.76C224.536 246.107 224.229 246.547 223.829 247.08C223.429 247.613 222.962 248.173 222.429 248.76C221.922 249.347 221.402 249.907 220.869 250.44C220.362 250.947 219.882 251.387 219.429 251.76H217.429V251.28C217.802 250.773 218.202 250.173 218.629 249.48C219.056 248.787 219.469 248.08 219.869 247.36C220.296 246.613 220.642 245.947 220.909 245.36H224.749V245.76ZM217.709 245.76C217.496 246.107 217.189 246.547 216.789 247.08C216.389 247.613 215.922 248.173 215.389 248.76C214.882 249.347 214.362 249.907 213.829 250.44C213.322 250.947 212.842 251.387 212.389 251.76H210.389V251.28C210.762 250.773 211.162 250.173 211.589 249.48C212.016 248.787 212.429 248.08 212.829 247.36C213.229 246.613 213.576 245.947 213.869 245.36H217.709V245.76ZM236.967 250.32V251.8C236.967 255.107 236.221 258.2 234.727 261.08C233.261 263.933 231.047 266.613 228.087 269.12L227.167 268.16C229.461 266 231.074 263.507 232.007 260.68C232.941 257.827 233.407 254.867 233.407 251.8V250.32C233.407 247.227 232.941 244.267 232.007 241.44C231.074 238.613 229.461 236.12 227.167 233.96L228.087 233C231.047 235.507 233.261 238.187 234.727 241.04C236.221 243.893 236.967 246.987 236.967 250.32Z" fill="white"/>
</svg>
