<svg width="350" height="500" viewBox="0 0 350 500" fill="none" xmlns="http://www.w3.org/2000/svg">
<rect width="350" height="500" fill="#D9D9D9"/>
<path d="M34.389 250V217.273H54.6837V221.523H39.3268V231.495H53.2295V235.73H39.3268V250H34.389ZM67.4279 250.543C65.8725 250.543 64.4662 250.256 63.2091 249.68C61.952 249.094 60.9559 248.248 60.2208 247.14C59.4964 246.032 59.1342 244.673 59.1342 243.065C59.1342 241.68 59.4005 240.54 59.9332 239.645C60.4659 238.75 61.185 238.042 62.0905 237.52C62.996 236.998 64.0081 236.603 65.1267 236.337C66.2453 236.071 67.3853 235.868 68.5465 235.73C70.0166 235.559 71.2098 235.421 72.126 235.314C73.0422 235.197 73.7081 235.011 74.1235 234.755C74.539 234.499 74.7468 234.084 74.7468 233.509V233.397C74.7468 232.001 74.3526 230.92 73.5642 230.153C72.7865 229.386 71.6253 229.002 70.0806 229.002C68.4719 229.002 67.2041 229.359 66.2773 230.073C65.3611 230.776 64.7272 231.559 64.3757 232.422L59.8853 231.399C60.4179 229.908 61.1956 228.704 62.2184 227.788C63.2517 226.861 64.4396 226.19 65.7819 225.774C67.1242 225.348 68.5358 225.135 70.0166 225.135C70.9968 225.135 72.0355 225.252 73.1328 225.487C74.2407 225.71 75.2741 226.126 76.2329 226.733C77.2024 227.34 77.996 228.208 78.6139 229.338C79.2318 230.456 79.5408 231.911 79.5408 233.7V250H74.8746V246.644H74.6828C74.3739 247.262 73.9105 247.869 73.2926 248.466C72.6747 249.062 71.881 249.558 70.9115 249.952C69.9421 250.346 68.7809 250.543 67.4279 250.543ZM68.4666 246.708C69.7876 246.708 70.9169 246.447 71.8544 245.925C72.8025 245.403 73.5216 244.721 74.0117 243.88C74.5124 243.027 74.7627 242.116 74.7627 241.147V237.983C74.5923 238.153 74.262 238.313 73.772 238.462C73.2926 238.601 72.7439 238.723 72.126 238.83C71.5081 238.926 70.9062 239.016 70.3203 239.102C69.7343 239.176 69.2443 239.24 68.8501 239.293C67.9233 239.411 67.0763 239.608 66.3093 239.885C65.5529 240.162 64.9456 240.561 64.4875 241.083C64.0401 241.594 63.8164 242.276 63.8164 243.129C63.8164 244.311 64.2532 245.206 65.1267 245.813C66.0003 246.41 67.1136 246.708 68.4666 246.708ZM85.9049 250V225.455H90.6829V250H85.9049ZM88.3179 221.667C87.4869 221.667 86.7731 221.39 86.1765 220.836C85.5906 220.272 85.2976 219.6 85.2976 218.823C85.2976 218.034 85.5906 217.363 86.1765 216.809C86.7731 216.245 87.4869 215.962 88.3179 215.962C89.1488 215.962 89.8573 216.245 90.4432 216.809C91.0398 217.363 91.3381 218.034 91.3381 218.823C91.3381 219.6 91.0398 220.272 90.4432 220.836C89.8573 221.39 89.1488 221.667 88.3179 221.667ZM101.889 217.273V250H97.1109V217.273H101.889ZM118.896 250.495C116.477 250.495 114.395 249.979 112.648 248.945C110.911 247.901 109.569 246.436 108.621 244.551C107.683 242.654 107.214 240.433 107.214 237.887C107.214 235.373 107.683 233.157 108.621 231.239C109.569 229.322 110.89 227.825 112.584 226.749C114.288 225.673 116.28 225.135 118.56 225.135C119.945 225.135 121.288 225.364 122.587 225.822C123.887 226.28 125.053 226.999 126.087 227.979C127.12 228.96 127.935 230.233 128.532 231.799C129.128 233.354 129.427 235.245 129.427 237.472V239.165H109.915V235.586H124.745C124.745 234.329 124.489 233.216 123.977 232.246C123.466 231.266 122.747 230.494 121.82 229.929C120.904 229.364 119.828 229.082 118.592 229.082C117.25 229.082 116.078 229.412 115.077 230.073C114.086 230.723 113.319 231.575 112.775 232.63C112.243 233.674 111.976 234.808 111.976 236.033V238.83C111.976 240.471 112.264 241.866 112.839 243.017C113.425 244.167 114.24 245.046 115.284 245.653C116.328 246.25 117.548 246.548 118.944 246.548C119.849 246.548 120.675 246.42 121.421 246.165C122.166 245.898 122.811 245.504 123.354 244.982C123.898 244.46 124.313 243.816 124.601 243.049L129.123 243.864C128.761 245.195 128.111 246.362 127.174 247.363C126.247 248.354 125.08 249.126 123.674 249.68C122.278 250.224 120.686 250.495 118.896 250.495ZM143.917 250.479C141.935 250.479 140.167 249.973 138.611 248.961C137.067 247.939 135.852 246.484 134.968 244.599C134.094 242.702 133.657 240.428 133.657 237.775C133.657 235.123 134.1 232.853 134.984 230.968C135.879 229.082 137.104 227.638 138.659 226.637C140.215 225.636 141.978 225.135 143.949 225.135C145.472 225.135 146.697 225.391 147.624 225.902C148.562 226.403 149.286 226.989 149.797 227.66C150.319 228.331 150.724 228.922 151.012 229.434H151.299V217.273H156.078V250H151.411V246.181H151.012C150.724 246.703 150.309 247.299 149.765 247.971C149.233 248.642 148.498 249.228 147.56 249.728C146.623 250.229 145.408 250.479 143.917 250.479ZM144.971 246.404C146.346 246.404 147.507 246.042 148.455 245.318C149.414 244.583 150.138 243.565 150.628 242.266C151.129 240.966 151.379 239.453 151.379 237.727C151.379 236.023 151.134 234.531 150.644 233.253C150.154 231.974 149.435 230.978 148.487 230.265C147.539 229.551 146.367 229.194 144.971 229.194C143.533 229.194 142.335 229.567 141.376 230.312C140.417 231.058 139.693 232.076 139.203 233.365C138.723 234.654 138.483 236.108 138.483 237.727C138.483 239.368 138.728 240.843 139.219 242.154C139.709 243.464 140.433 244.503 141.392 245.27C142.361 246.026 143.554 246.404 144.971 246.404ZM186.264 225.455V229.29H172.857V225.455H186.264ZM176.452 219.574H181.23V242.793C181.23 243.72 181.369 244.418 181.646 244.886C181.923 245.344 182.28 245.659 182.716 245.829C183.164 245.989 183.649 246.069 184.171 246.069C184.554 246.069 184.89 246.042 185.177 245.989C185.465 245.936 185.689 245.893 185.849 245.861L186.711 249.808C186.434 249.915 186.04 250.021 185.529 250.128C185.018 250.245 184.378 250.309 183.611 250.32C182.354 250.341 181.182 250.117 180.096 249.648C179.009 249.18 178.13 248.455 177.459 247.475C176.788 246.495 176.452 245.265 176.452 243.784V219.574ZM201.625 250.495C199.324 250.495 197.316 249.968 195.6 248.913C193.885 247.859 192.553 246.383 191.605 244.487C190.657 242.591 190.183 240.375 190.183 237.839C190.183 235.293 190.657 233.066 191.605 231.159C192.553 229.252 193.885 227.772 195.6 226.717C197.316 225.662 199.324 225.135 201.625 225.135C203.926 225.135 205.934 225.662 207.649 226.717C209.365 227.772 210.696 229.252 211.644 231.159C212.593 233.066 213.067 235.293 213.067 237.839C213.067 240.375 212.593 242.591 211.644 244.487C210.696 246.383 209.365 247.859 207.649 248.913C205.934 249.968 203.926 250.495 201.625 250.495ZM201.641 246.484C203.132 246.484 204.368 246.09 205.348 245.302C206.328 244.513 207.053 243.464 207.522 242.154C208.001 240.843 208.241 239.4 208.241 237.823C208.241 236.257 208.001 234.819 207.522 233.509C207.053 232.187 206.328 231.127 205.348 230.328C204.368 229.529 203.132 229.13 201.641 229.13C200.139 229.13 198.892 229.529 197.902 230.328C196.921 231.127 196.192 232.187 195.712 233.509C195.243 234.819 195.009 236.257 195.009 237.823C195.009 239.4 195.243 240.843 195.712 242.154C196.192 243.464 196.921 244.513 197.902 245.302C198.892 246.09 200.139 246.484 201.641 246.484ZM235.087 217.273V250H230.309V217.273H235.087ZM251.854 250.495C249.553 250.495 247.545 249.968 245.83 248.913C244.115 247.859 242.783 246.383 241.835 244.487C240.887 242.591 240.413 240.375 240.413 237.839C240.413 235.293 240.887 233.066 241.835 231.159C242.783 229.252 244.115 227.772 245.83 226.717C247.545 225.662 249.553 225.135 251.854 225.135C254.155 225.135 256.164 225.662 257.879 226.717C259.594 227.772 260.926 229.252 261.874 231.159C262.822 233.066 263.296 235.293 263.296 237.839C263.296 240.375 262.822 242.591 261.874 244.487C260.926 246.383 259.594 247.859 257.879 248.913C256.164 249.968 254.155 250.495 251.854 250.495ZM251.87 246.484C253.362 246.484 254.598 246.09 255.578 245.302C256.558 244.513 257.282 243.464 257.751 242.154C258.23 240.843 258.47 239.4 258.47 237.823C258.47 236.257 258.23 234.819 257.751 233.509C257.282 232.187 256.558 231.127 255.578 230.328C254.598 229.529 253.362 229.13 251.87 229.13C250.368 229.13 249.122 229.529 248.131 230.328C247.151 231.127 246.421 232.187 245.942 233.509C245.473 234.819 245.239 236.257 245.239 237.823C245.239 239.4 245.473 240.843 245.942 242.154C246.421 243.464 247.151 244.513 248.131 245.302C249.122 246.09 250.368 246.484 251.87 246.484ZM275.773 250.543C274.217 250.543 272.811 250.256 271.554 249.68C270.297 249.094 269.301 248.248 268.566 247.14C267.841 246.032 267.479 244.673 267.479 243.065C267.479 241.68 267.745 240.54 268.278 239.645C268.811 238.75 269.53 238.042 270.435 237.52C271.341 236.998 272.353 236.603 273.471 236.337C274.59 236.071 275.73 235.868 276.891 235.73C278.361 235.559 279.555 235.421 280.471 235.314C281.387 235.197 282.053 235.011 282.468 234.755C282.884 234.499 283.091 234.084 283.091 233.509V233.397C283.091 232.001 282.697 230.92 281.909 230.153C281.131 229.386 279.97 229.002 278.425 229.002C276.817 229.002 275.549 229.359 274.622 230.073C273.706 230.776 273.072 231.559 272.72 232.422L268.23 231.399C268.763 229.908 269.54 228.704 270.563 227.788C271.596 226.861 272.784 226.19 274.127 225.774C275.469 225.348 276.881 225.135 278.361 225.135C279.341 225.135 280.38 225.252 281.477 225.487C282.585 225.71 283.619 226.126 284.578 226.733C285.547 227.34 286.341 228.208 286.959 229.338C287.577 230.456 287.886 231.911 287.886 233.7V250H283.219V246.644H283.028C282.719 247.262 282.255 247.869 281.637 248.466C281.019 249.062 280.226 249.558 279.256 249.952C278.287 250.346 277.126 250.543 275.773 250.543ZM276.811 246.708C278.132 246.708 279.262 246.447 280.199 245.925C281.147 245.403 281.866 244.721 282.356 243.88C282.857 243.027 283.107 242.116 283.107 241.147V237.983C282.937 238.153 282.607 238.313 282.117 238.462C281.637 238.601 281.089 238.723 280.471 238.83C279.853 238.926 279.251 239.016 278.665 239.102C278.079 239.176 277.589 239.24 277.195 239.293C276.268 239.411 275.421 239.608 274.654 239.885C273.898 240.162 273.29 240.561 272.832 241.083C272.385 241.594 272.161 242.276 272.161 243.129C272.161 244.311 272.598 245.206 273.471 245.813C274.345 246.41 275.458 246.708 276.811 246.708ZM303.438 250.479C301.457 250.479 299.688 249.973 298.133 248.961C296.588 247.939 295.374 246.484 294.489 244.599C293.616 242.702 293.179 240.428 293.179 237.775C293.179 235.123 293.621 232.853 294.505 230.968C295.4 229.082 296.625 227.638 298.181 226.637C299.736 225.636 301.499 225.135 303.47 225.135C304.994 225.135 306.219 225.391 307.146 225.902C308.083 226.403 308.807 226.989 309.319 227.66C309.841 228.331 310.246 228.922 310.533 229.434H310.821V217.273H315.599V250H310.933V246.181H310.533C310.246 246.703 309.83 247.299 309.287 247.971C308.754 248.642 308.019 249.228 307.082 249.728C306.144 250.229 304.93 250.479 303.438 250.479ZM304.493 246.404C305.867 246.404 307.028 246.042 307.977 245.318C308.935 244.583 309.66 243.565 310.15 242.266C310.651 240.966 310.901 239.453 310.901 237.727C310.901 236.023 310.656 234.531 310.166 233.253C309.676 231.974 308.957 230.978 308.008 230.265C307.06 229.551 305.888 229.194 304.493 229.194C303.055 229.194 301.856 229.567 300.897 230.312C299.939 231.058 299.214 232.076 298.724 233.365C298.245 234.654 298.005 236.108 298.005 237.727C298.005 239.368 298.25 240.843 298.74 242.154C299.23 243.464 299.955 244.503 300.913 245.27C301.883 246.026 303.076 246.404 304.493 246.404Z" fill="white"/>
<path d="M106.186 306.417C106.186 302.411 106.714 298.725 107.768 295.359C108.823 291.992 110.362 288.887 112.387 286.042H116.765C115.977 287.097 115.242 288.391 114.56 289.925C113.878 291.46 113.281 293.143 112.77 294.975C112.259 296.797 111.859 298.688 111.572 300.648C111.284 302.598 111.14 304.521 111.14 306.417C111.14 308.952 111.39 311.52 111.891 314.119C112.392 316.719 113.068 319.132 113.921 321.358C114.773 323.585 115.721 325.401 116.765 326.808H112.387C110.362 323.963 108.823 320.858 107.768 317.491C106.714 314.125 106.186 310.433 106.186 306.417ZM128.311 316.355C125.971 316.355 124.081 315.485 122.641 313.745C121.201 312.005 120.481 309.395 120.481 305.915C120.481 304.055 120.736 302.345 121.246 300.785C121.786 299.225 122.581 297.86 123.631 296.69C124.681 295.49 125.956 294.56 127.456 293.9L128.131 294.485H120.481V291.02H141.631C143.221 291.02 144.346 290.945 145.006 290.795C145.696 290.645 146.191 290.45 146.491 290.21C146.911 289.91 147.181 289.58 147.301 289.22C147.421 288.83 147.481 288.425 147.481 288.005C147.481 287.015 147.241 286.055 146.761 285.125C146.281 284.165 145.546 283.19 144.556 282.2L147.481 280.265C148.891 281.825 149.851 283.235 150.361 284.495C150.871 285.725 151.126 286.985 151.126 288.275C151.126 288.845 151.006 289.55 150.766 290.39C150.526 291.2 150.031 291.935 149.281 292.595C148.981 292.865 148.606 293.12 148.156 293.36C147.736 293.6 147.256 293.81 146.716 293.99C146.176 294.14 145.546 294.26 144.826 294.35L144.871 294.08C146.161 294.77 147.271 295.7 148.201 296.87C149.131 298.04 149.851 299.39 150.361 300.92C150.871 302.45 151.126 304.115 151.126 305.915C151.126 309.395 150.391 312.005 148.921 313.745C147.481 315.485 145.546 316.355 143.116 316.355C141.826 316.355 140.701 316.19 139.741 315.86C138.811 315.5 137.971 314.945 137.221 314.195C136.471 313.415 135.751 312.395 135.061 311.135L136.501 310.91C135.811 312.44 135.031 313.595 134.161 314.375C133.321 315.155 132.406 315.68 131.416 315.95C130.426 316.22 129.391 316.355 128.311 316.355ZM128.806 312.8C130.306 312.8 131.491 312.305 132.361 311.315C133.231 310.295 133.801 309.035 134.071 307.535H137.491C137.791 309.365 138.436 310.7 139.426 311.54C140.416 312.38 141.526 312.8 142.756 312.8C144.196 312.8 145.336 312.29 146.176 311.27C147.016 310.25 147.436 308.51 147.436 306.05C147.436 304.49 147.196 303.005 146.716 301.595C146.266 300.185 145.576 298.94 144.646 297.86C143.716 296.78 142.546 295.94 141.136 295.34C139.756 294.71 138.136 294.395 136.276 294.395H135.511C133.651 294.395 132.016 294.68 130.606 295.25C129.196 295.82 128.011 296.63 127.051 297.68C126.091 298.73 125.371 299.96 124.891 301.37C124.411 302.75 124.171 304.28 124.171 305.96C124.171 308.42 124.576 310.175 125.386 311.225C126.196 312.275 127.336 312.8 128.806 312.8ZM135.781 304.7C135.061 304.7 134.446 304.445 133.936 303.935C133.426 303.425 133.171 302.795 133.171 302.045C133.171 301.295 133.426 300.665 133.936 300.155C134.446 299.645 135.061 299.39 135.781 299.39C136.531 299.39 137.146 299.645 137.626 300.155C138.136 300.665 138.391 301.295 138.391 302.045C138.391 302.795 138.136 303.425 137.626 303.935C137.146 304.445 136.531 304.7 135.781 304.7ZM133.711 322.295L134.071 315.14H137.536L137.896 322.295H133.711ZM153 318.74C154.62 318.74 156.06 319.55 157.23 320.225C157.86 320.585 159.39 321.305 160.515 321.305C161.595 321.305 162.63 320.9 163.89 320.225C164.925 319.64 166.05 318.74 167.985 318.74C169.965 318.74 171.045 319.64 172.125 320.225C173.385 320.9 174.42 321.305 175.5 321.305C176.58 321.305 178.155 320.585 178.785 320.225C179.91 319.55 181.35 318.74 182.97 318.74C184.59 318.74 186.03 319.55 187.155 320.225C187.785 320.585 189.36 321.305 190.44 321.305C191.52 321.305 192.555 320.9 193.815 320.225C194.895 319.64 196.065 318.74 198 318.74V321.305C196.425 321.305 195.345 322.025 194.76 322.385C193.275 323.195 192.105 323.87 190.44 323.87C188.775 323.87 187.29 322.925 186.255 322.385C184.995 321.71 184.005 321.305 182.97 321.305C181.935 321.305 180.945 321.71 179.685 322.385C178.65 322.97 177.165 323.87 175.5 323.87C173.835 323.87 172.665 323.195 171.18 322.385C170.595 322.025 169.56 321.305 167.985 321.305C166.41 321.305 165.42 322.025 164.835 322.385C163.305 323.195 162.135 323.87 160.515 323.87C158.85 323.87 157.32 322.925 156.33 322.385C155.07 321.71 154.08 321.305 153 321.305V318.74ZM207.72 316.355C205.38 316.355 203.49 315.485 202.05 313.745C200.61 312.005 199.89 309.395 199.89 305.915C199.89 304.055 200.145 302.345 200.655 300.785C201.195 299.225 201.99 297.86 203.04 296.69C204.09 295.49 205.365 294.56 206.865 293.9L207.54 294.485H199.89V291.02H221.04C222.63 291.02 223.755 290.945 224.415 290.795C225.105 290.645 225.6 290.45 225.9 290.21C226.32 289.91 226.59 289.58 226.71 289.22C226.83 288.83 226.89 288.425 226.89 288.005C226.89 287.015 226.65 286.055 226.17 285.125C225.69 284.165 224.955 283.19 223.965 282.2L226.89 280.265C228.3 281.825 229.26 283.235 229.77 284.495C230.28 285.725 230.535 286.985 230.535 288.275C230.535 288.845 230.415 289.55 230.175 290.39C229.935 291.2 229.44 291.935 228.69 292.595C228.39 292.865 228.015 293.12 227.565 293.36C227.145 293.6 226.665 293.81 226.125 293.99C225.585 294.14 224.955 294.26 224.235 294.35L224.28 294.08C225.57 294.77 226.68 295.7 227.61 296.87C228.54 298.04 229.26 299.39 229.77 300.92C230.28 302.45 230.535 304.115 230.535 305.915C230.535 309.395 229.8 312.005 228.33 313.745C226.89 315.485 224.955 316.355 222.525 316.355C221.235 316.355 220.11 316.19 219.15 315.86C218.22 315.5 217.38 314.945 216.63 314.195C215.88 313.415 215.16 312.395 214.47 311.135L215.91 310.91C215.22 312.44 214.44 313.595 213.57 314.375C212.73 315.155 211.815 315.68 210.825 315.95C209.835 316.22 208.8 316.355 207.72 316.355ZM208.215 312.8C209.715 312.8 210.9 312.305 211.77 311.315C212.64 310.295 213.21 309.035 213.48 307.535H216.9C217.2 309.365 217.845 310.7 218.835 311.54C219.825 312.38 220.935 312.8 222.165 312.8C223.605 312.8 224.745 312.29 225.585 311.27C226.425 310.25 226.845 308.51 226.845 306.05C226.845 304.49 226.605 303.005 226.125 301.595C225.675 300.185 224.985 298.94 224.055 297.86C223.125 296.78 221.955 295.94 220.545 295.34C219.165 294.71 217.545 294.395 215.685 294.395H214.92C213.06 294.395 211.425 294.68 210.015 295.25C208.605 295.82 207.42 296.63 206.46 297.68C205.5 298.73 204.78 299.96 204.3 301.37C203.82 302.75 203.58 304.28 203.58 305.96C203.58 308.42 203.985 310.175 204.795 311.225C205.605 312.275 206.745 312.8 208.215 312.8ZM215.19 304.7C214.47 304.7 213.855 304.445 213.345 303.935C212.835 303.425 212.58 302.795 212.58 302.045C212.58 301.295 212.835 300.665 213.345 300.155C213.855 299.645 214.47 299.39 215.19 299.39C215.94 299.39 216.555 299.645 217.035 300.155C217.545 300.665 217.8 301.295 217.8 302.045C217.8 302.795 217.545 303.425 217.035 303.935C216.555 304.445 215.94 304.7 215.19 304.7ZM213.12 322.295L213.48 315.14H216.945L217.305 322.295H213.12ZM244.81 306.417C244.81 310.433 244.282 314.125 243.228 317.491C242.173 320.858 240.634 323.963 238.609 326.808H234.231C235.019 325.753 235.754 324.458 236.436 322.924C237.118 321.39 237.715 319.712 238.226 317.891C238.737 316.058 239.137 314.162 239.424 312.202C239.712 310.241 239.856 308.313 239.856 306.417C239.856 303.892 239.606 301.33 239.105 298.73C238.604 296.131 237.928 293.718 237.075 291.491C236.223 289.265 235.275 287.449 234.231 286.042H238.609C240.634 288.887 242.173 291.992 243.228 295.359C244.282 298.725 244.81 302.411 244.81 306.417Z" fill="white"/>
</svg>
