<svg width="192" height="192" viewBox="0 0 192 192" fill="none" xmlns="http://www.w3.org/2000/svg">
<rect width="192" height="192" rx="38" fill="#D8CDFF" style="fill:#D8CDFF;fill:color(display-p3 0.8484 0.8042 1.0000);fill-opacity:1;"/>
<g clip-path="url(#clip0_717_40)">
<path d="M30.5935 57.375C36.1343 57.375 40.9693 59.1618 45.0976 62.7353C49.3348 66.1301 52.5942 71.3118 54.8757 78.2802C57.2661 85.0699 58.461 93.557 58.461 103.742H42.3271C42.3271 97.6666 41.8927 92.6636 41.0234 88.7327C40.263 84.6232 39.0137 81.5857 37.2751 79.6202C35.5369 77.6548 33.2553 76.6721 30.4305 76.6721C26.1933 76.6721 23.1513 78.9055 21.3043 83.3724C19.4573 87.8393 18.5338 94.6291 18.5338 103.742H2.3999C2.3999 93.7357 3.54069 85.3379 5.82225 78.5482C8.10381 71.5798 11.3632 66.3089 15.6004 62.7353C19.8375 59.1618 24.8352 57.375 30.5935 57.375ZM124.03 103.742C124.03 110.888 123.324 117.232 121.912 122.771C120.608 128.309 118.707 133.045 116.208 136.975C113.818 140.728 110.884 143.586 107.408 145.552C104.04 147.517 100.183 148.5 95.8369 148.5C91.8171 148.5 88.1229 147.517 84.755 145.552C81.3871 143.586 78.4537 140.728 75.9547 136.975C73.4558 133.045 71.5002 128.309 70.0879 122.771C68.7841 117.232 68.0778 110.888 67.9693 103.742H84.1032C84.1032 109.28 84.5376 114.016 85.4069 117.946C86.2762 121.699 87.5799 124.557 89.3182 126.523C91.0564 128.309 93.3379 129.203 96.1628 129.203C98.8789 129.203 101.106 128.309 102.845 126.523C104.583 124.557 105.832 121.699 106.593 117.946C107.462 114.016 107.897 109.28 107.897 103.742H124.03ZM161.732 57.375C167.273 57.375 172.108 59.1618 176.236 62.7353C180.474 66.1301 183.733 71.3118 186.015 78.2802C188.405 85.0699 189.6 93.557 189.6 103.742H173.466C173.466 97.6666 173.032 92.6636 172.162 88.7327C171.402 84.6232 170.152 81.5857 168.414 79.6202C166.676 77.6548 164.394 76.6721 161.569 76.6721C157.332 76.6721 154.29 78.9055 152.443 83.3724C150.596 87.8393 149.673 94.6291 149.673 103.742H133.539C133.539 93.7357 134.679 85.3379 136.961 78.5482C139.243 71.5798 142.502 66.3089 146.739 62.7353C150.976 59.1618 155.974 57.375 161.732 57.375Z" fill="#333333" style="fill:#333333;fill:color(display-p3 0.2000 0.2000 0.2000);fill-opacity:1;"/>
</g>
<defs>
<clipPath id="clip0_717_40">
<rect width="187.5" height="91.3548" fill="white" style="fill:white;fill-opacity:1;" transform="translate(2.25 57.2903)"/>
</clipPath>
</defs>
</svg>
