<svg width="512" height="512" viewBox="0 0 512 512" fill="none" xmlns="http://www.w3.org/2000/svg">
<rect width="512" height="512" rx="40" fill="black" style="fill:black;fill-opacity:1;"/>
<path d="M81.5828 153C96.3584 153 109.252 157.765 120.26 167.294C131.56 176.347 140.251 190.165 146.335 208.747C152.71 226.853 155.896 249.485 155.896 276.644H112.873C112.873 260.444 111.714 247.103 109.396 236.621C107.368 225.662 104.037 217.562 99.4005 212.321C94.7652 207.079 88.6811 204.459 81.1482 204.459C69.849 204.459 61.7368 210.415 56.8115 222.326C51.8862 234.238 49.4236 252.344 49.4236 276.644H6.3999C6.3999 249.962 9.44199 227.568 15.5262 209.462C21.6103 190.879 30.302 176.824 41.6011 167.294C52.9003 157.765 66.2275 153 81.5828 153ZM330.748 276.644C330.748 295.702 328.865 312.618 325.099 327.388C321.622 342.158 316.552 354.786 309.888 365.268C303.515 375.274 295.692 382.897 286.421 388.138C277.44 393.38 267.154 396 255.565 396C244.846 396 234.995 393.38 226.014 388.138C217.033 382.897 209.21 375.274 202.546 365.268C195.882 354.786 190.667 342.158 186.901 327.388C183.424 312.618 181.541 295.702 181.252 276.644H224.275C224.275 291.414 225.434 304.042 227.752 314.524C230.07 324.529 233.547 332.152 238.182 337.394C242.817 342.158 248.901 344.541 256.434 344.541C263.677 344.541 269.617 342.158 274.252 337.394C278.888 332.152 282.22 324.529 284.248 314.524C286.566 304.042 287.724 291.414 287.724 276.644H330.748ZM431.286 153C446.062 153 458.954 157.765 469.964 167.294C481.263 176.347 489.955 190.165 496.039 208.747C502.413 226.853 505.6 249.485 505.6 276.644H462.576C462.576 260.444 461.418 247.103 459.1 236.621C457.072 225.662 453.739 217.562 449.104 212.321C444.469 207.079 438.385 204.459 430.852 204.459C419.553 204.459 411.441 210.415 406.515 222.326C401.589 234.238 399.127 252.344 399.127 276.644H356.103C356.103 249.962 359.146 227.568 365.23 209.462C371.314 190.879 380.005 176.824 391.305 167.294C402.604 157.765 415.931 153 431.286 153Z" fill="white" style="fill:white;fill-opacity:1;"/>
</svg>
